<svg version="1.2" xmlns="http://www.w3.org/2000/svg" viewBox="0 0 1350 1350" width="1350" height="1350">
	<title>1609</title>
	<style>
		.s0 { fill: #a8a8a8 } 
		.s1 { fill: #3f3f3f } 
	</style>
	<g id="layer">
		<g id="&lt;Group&gt;">
			<g id="&lt;Group&gt;">
				<path id="&lt;Compound Path&gt;" fill-rule="evenodd" class="s0" d="m630 1150.2q-0.1 0-0.1 0l-97.7-19.2q-0.2-0.1-0.2-0.2q-0.1-0.1 0-0.3l4.9-8.2l-88.1-26.5q0 0 0 0q0 0 0 0q0 0 0 0q0 0 0 0q0 0 0 0q0 0 0 0q0 0-0.1 0l-109-80.4q0 0 0 0q0 0 0 0q0 0 0 0c0 0 0 0 0 0q0 0 0 0q0 0 0 0q0 0 0 0q0 0 0 0q0 0 0 0q0 0 0 0q0 0 0 0q0 0 0 0q0 0 0-0.1q0 0 0 0q0 0 0 0q-0.1 0-0.1 0q0 0 0 0l-89-119.5q-0.1-0.1 0-0.3q0.1-0.1 0.3-0.2l22.1 0.8l-65.1-116.4q0-0.1 0-0.2q0 0 0 0q0 0 0 0l68.5-233.3l-77.9 83.8c-0.1 0.1-0.2 0.1-0.3 0.1c-0.2-0.1-0.2-0.2-0.2-0.4l25.7-117q0-0.1 0.1-0.1q0 0 0 0q0 0 0 0l112.4-181.8q0 0 0 0q0.1 0 0.1 0q0 0 0 0q0 0 0 0l114.8-80.8q0 0 0 0q0 0 0 0q0 0 0 0q0.1 0 0.1 0l131.5-47.5q0.1-0.1 0.1-0.1q0 0 0 0l154.7-4q0 0 0 0q0 0 0 0q0 0 0 0l117.1 26.7q0 0 0 0q0 0 0.1 0l80.6 46q0 0 0 0l91.4 76.9q0 0 0 0.1l76.2 110q0 0 0 0q0 0 0 0q0 0 0 0l25.7 65.8c0.1 0.1 0 0.3-0.1 0.4c-0.1 0-0.3 0-0.4-0.1l-25.4-27.7l-0.3 51.7l39.8 18.1q0.1 0.1 0.1 0.2l11.4 83.8q0 0.1 0 0.1q0 0 0 0l-30.2 127.3l17.1 9.2c0.1 0.1 0.2 0.2 0.1 0.4l-48.4 121.7q0 0 0 0q0 0 0 0q0 0 0 0q0 0 0 0q0 0 0 0l-85.3 111.3q0 0 0 0q0 0 0 0.1q0 0 0 0q0 0 0 0q0 0 0 0q0 0 0 0q0 0-0.1 0l-101.4 73.2q0 0-0.1 0l-111 44.1c-0.2 0.1-0.3 0-0.4-0.1l-10.2-19l-41.6 8.6l-6.9 21.6c-0.1 0.1-0.2 0.2-0.3 0.2l-105 1.2q0 0 0 0zm111.5-22.9l-108.4 22.2l101.6-1.1zm-203.6-5.4l91.7 27.5l-11.9-78.8l-53.7 7.8zm210.2-70l-117 97.4l110.7-22.7l17.3-54.2zm-129.8 18.7l12 78.7l116.9-97.4zm-85.5 59.9l91.2 17.9l-86.4-25.9zm251.7-12l10 18.6l107.6-42.7zm-25-45.3l-17.1 53.3l41.2-8.5zm-309.1 22.5l86.9 26.1l26-43.2l-38.6 5.6zm309.4-23.3l24.4 45.6l119.9-24.7l-139.2-37zm-330.8-23.9l20.3 46.7l74.2-11.5zm-87-32.4l106.4 78.5l-20.1-46.4zm423.2 39.5l139.7 37.2l-30.2-56.4l-107.5 13zm155.2-24.7l-14.4 61.7l99.8-72.1zm-45 5.5l30 56.1l14.4-61.5zm-375-77.9l24.6 125l38.8-5.6l43.9-73.1zm-71.7 89.3l95.6 35.5l-24.6-125.1l-135.2-58.3zm179.2-42.2l-43.3 72.2l53.1-7.7zm140.9 46.4l10.7 19.8l4.9-15.6zm-140.3-46.9l9.8 64.9l128.6-18.6zm141.4 46.5l14.8 3.9l1.9-5.9zm58.2-132l-59.3 131.5l18-2.2zm-199.2 85.1l138.7 46.3l-53.2-84.5zm86.1-38.3l53.2 84.6l61.2-135.6zm115-50.8l-42.6 133.4l107-12.9zm-469.6 99.5l87.6 32.5l-63.9-147.1zm470.3-99.5l64.4 120.4l44.8-5.4l11.8-50.3zm121.5 65.1l-11.6 49.9l85.4-10.4zm0.1-0.6l74.3 39.8l-5.2-108.6l-53.2 1.1zm69.6-68.9l5.2 107.7l40.2-108.6zm46-1l-40.1 108.4l83.7-109.3zm-773.8-13.3l65.3 116.9l-15.4-115.2zm50.6 1.6l15.4 115l23.4-113.7zm-73.1-2.4l85.9 115.3l-64-114.6zm248.6 61.9l107.6 46.4l27.5-131.2l-148.9 14.6zm135.6-84.3l-27.4 130.6l85.6-38.1zm175.2 41.4l120.7 64.7l15.8-67.5zm-174.7-41.7l58.2 92.5l114.4-51zm-271.2 26.5l134.4 57.9l-13.8-69.8zm626.9-177.8l-181.4 192.6l137.1-2.9zm-355.9 150.7l173.3 41.8l-79.2-239.5zm94.7-198.1l79.1 239.3l64.1-213.8zm143.8 25.7l-64 213.5l181.4-192.5zm117.7 22.9l-44 188.6l53-1.1zm0.6-0.9l9 188.3l45.7-0.9l18.3-49.6zm73.4 138.5l-18.1 48.9l43.5-0.9zm0.3-0.8l25.4 47.9l8.6-139.9zm34.8-93.5l-8.6 139l30.2-127.4zm22.1 12l-30 126.6l46.7-117.6zm-798.8 119.5l38.4 1.3l-42.6-32.8zm128-178.5l-88.2 179.8l121.2-12zm-132.3 146.2l43.3 33.3l-5.2-156.5l-52.8 13.2zm38.7-123.2l5.2 156l88-179.4zm-85.2 154l50.2 1.7l-4.3-32.1l-110.4-85zm179.4-177l33 167.9l148.7-14.6zm0.3-0.6l182.1 153.7l94.2-197.9zm-244.5 61.1l110.7 85.3l-14.6-109.3zm784.2-58.3l73 137.8l34.5-93.2zm-716.1-174.8l-68.3 232.6l96.2-24.1zm824.4 219.2l21.6 11.7l29.4-124.1zm-108.1-44.9l107.4 44.6l0.5-91.9zm108.6-47.5l-0.5 91.2l51.5-113.5zm-824.2-127.4l27.9 209l52.8-13.2l-4-120zm77.5 76.4l3.9 119.2l93.2-23.3zm519.7 77.2l117.2 20.9l-83.3-133.6zm196.3-165l-78 185.7l108.2-47.3l0.7-124.4zm-129-58.8l50.5 244.2l77.9-185.6zm-33.4 110.4l83.1 133.2l-50.2-242.9zm-263.1-41l-192 172.9l276.2-44.1zm-290.7 76.4l97.5 96.2l14.3-189.7l-115.1-7.1zm112.4-93.5l-14.3 189.7l192.2-173.1l-22.4-34.3zm263.6 145.8l143.2 25.6l34-113.3l-31.1-49.8zm75.3-251l-75.3 250.3l145.8-137.2zm-112.9 79.4l37.1 170.6l75.2-250zm409.2 46.7l-0.7 123.8l51.3-22.4l-11.2-83.4zm-456.5-4.2l83.6 127.8l-36.9-169.9zm-421.7-31.6l-25.4 115.7l78-83.8l7.8-28.2zm53.2 32l76.8 75.8l-3.4-100l-57.7-3.5zm599.9-9.1l30.9 49.4l32.7-109.3zm193.8-2l30.7 14l0.3-52l-10.3-11.2zm-447.8-23.7l22.2 33.9l46.4-41.8zm-338.2 6.7l-7.2 26l14.4-25.6zm521.5-94.2l70.4 112.8l64-60.2zm136.1 52.7l127.8 58.4l20.8-49.5l-20.5-22.3zm-591.2 45l114.6 7l-118-106.6zm201.6-116.5l-85.5 123.6l154.8-17.7zm-204.4 16.6l118 106.7l-6.5-115.8zm112.1-9.3l6.5 115.8l85.2-123.3zm642.1 84.6l24.7 26.9l-24.5-62.8zm-809.3 21.1l57.4 3.5l-3.3-99.1zm-8.1-0.5l7.5 0.5l54.1-95.6l-44.4 33.2zm-60.5-3.7l59.9 3.7l17-61.3zm110.7-179.5l-110.5 178.6l77-57.6zm218.5 71.4l68.9 105.3l69-7.9zm105.8 7.2l33.1 90l112.1-79.2zm-105.8-7.9l138.2 97.6l-33-89.8zm538 80.5l10 11l0.2-35.3zm-20.5-22.3l20 21.8l10.5-25zm-70.1-75.6l-59.3 88.6l128.2-13.4zm-195 35.7l134.8 52.8l-22.7-165.2zm112.6-112.3l22.7 164.7l59.2-88.6l-34.4-37.4zm82.7 76l69.3 75.6l30.7-3.2l-96.2-78.2zm4.2-6.2l95.2 77.3l-74.7-107.9zm-669.7-46.8l-33.5 120.8l44.7-33.4zm323.3 78.2l145.8 10.9l-85-168.9l-89.3 80.4zm61.4-158.2l84.8 168.6l38.9-157.6zm124.3 11.1l-38.8 157.4l111.8-112.2l-32-41.5zm-390.9 47.2l-105.8 108.8l111.4-9.2zm-117.6 20.4l11.2 88l61.4-100.8zm73.4-12.9l-60.7 99.6l104.3-107.3zm143.6 84.6l105.3 7.8l-28.4-77.1zm-98.7-92l5.6 99.6l91.7-7.6zm0.1-0.7l97.7 92.4l22.3-150l-84.6 27.9zm120.6-57.8l-22.3 150l77-69.3l-32.4-88zm394.1 98.4l31.6 34.3l3.8-5.6zm-2.8-3.1l38.4 31.3l20.5-30.6l-87.7-32.1zm-29.7-32.4l87.5 32l-89.7-75.5l-12.2 27.9zm-17-5.6l43.5 35.4l-26.8-29.3zm-321.7-64.9l32.2 87.7l89.1-80.2l-68.9-24.8zm-148.4 6.5l-112 78.8l80.1-26.5zm-32.3 53.2l-77.5 25.5l69.3-12.2zm0.9-0.3l-8.2 13.5l43.8-7.8l-1-17.1zm500.4 4.5l17 6.2l-13.3-14.6zm-465.2-16.1l1 17l34-28.6zm433.2-25.1l31.5 40.9l3.7-8.5l-29.3-31.9zm-436.2-16.2l-31.7 52.2l34-11.3zm443 16.8l28.6 31.3l12.1-27.7zm-442.4-17.5l2.4 41.5l36.3-12l91.1-76.4zm130.8-46.9l-90.6 75.9l83.4-27.5zm310.9 63.9l40.4 3.6l-77.7-44.4zm-6.7-0.6l5.8 0.6l-33.5-36.6zm-41.2-3.6l40.4 3.6l-31.3-40.6zm-122.9-11l122.3 10.9l9.2-37.2zm-70.7-24.9l68.4 24.6l16.7-52.7zm85.7-28.1l-16.7 52.7l132.1-26.5zm-154.7 4.9l-7.1 47.8l22-7.3zm0.4-0.7l15.1 41.1l51.6-17.1zm1.1-0.2l66.6 23.9l84.4-27.9z" />
			</g>
			<g id="&lt;Group&gt;">
				<path id="&lt;Path&gt;" class="s0" d="m553 406.6c-1.9 0-3.4-1.6-3.4-3.4c0-1.9 1.5-3.5 3.4-3.5c1.9 0 3.5 1.6 3.5 3.5c0 1.8-1.6 3.4-3.5 3.4z" />
				<path id="&lt;Path&gt;" class="s0" d="m1102.6 461.7c-1.9 0-3.4-1.6-3.4-3.5c0-1.9 1.5-3.4 3.4-3.4c1.9 0 3.5 1.5 3.5 3.4c0 1.9-1.6 3.5-3.5 3.5z" />
				<path id="&lt;Path&gt;" class="s0" d="m1128.3 527.4c-1.9 0-3.4-1.5-3.4-3.4c0-1.9 1.5-3.4 3.4-3.4c1.9 0 3.5 1.5 3.5 3.4c0 1.9-1.6 3.4-3.5 3.4z" />
				<path id="&lt;Path&gt;" class="s0" d="m854.5 228.8c-1.9 0-3.4-1.5-3.4-3.4c0-1.9 1.5-3.5 3.4-3.5c1.9 0 3.4 1.6 3.4 3.5c0 1.9-1.5 3.4-3.4 3.4z" />
				<path id="&lt;Path&gt;" class="s0" d="m737.5 202.1c-1.9 0-3.4-1.5-3.4-3.4c0-1.9 1.5-3.4 3.4-3.4c1.9 0 3.4 1.5 3.4 3.4c0 1.9-1.5 3.4-3.4 3.4z" />
				<path id="&lt;Path&gt;" class="s0" d="m336.5 334.4c-1.9 0-3.5-1.5-3.5-3.4c0-1.9 1.6-3.4 3.5-3.4c1.8 0 3.4 1.5 3.4 3.4c0 1.9-1.6 3.4-3.4 3.4z" />
				<path id="&lt;Path&gt;" class="s0" d="m277.1 548.5c-1.9 0-3.5-1.5-3.5-3.4c0-1.9 1.6-3.4 3.5-3.4c1.9 0 3.4 1.5 3.4 3.4c0 1.9-1.5 3.4-3.4 3.4z" />
				<path id="&lt;Path&gt;" class="s0" d="m347.9 423.5c-1.9 0-3.5-1.6-3.5-3.4c0-1.9 1.6-3.5 3.5-3.5c1.9 0 3.4 1.6 3.4 3.5c0 1.8-1.5 3.4-3.4 3.4z" />
				<path id="&lt;Path&gt;" class="s0" d="m363.8 902.8c-1.9 0-3.4-1.5-3.4-3.4c0-1.9 1.5-3.4 3.4-3.4c1.9 0 3.4 1.5 3.4 3.4c0 1.9-1.5 3.4-3.4 3.4z" />
				<path id="&lt;Path&gt;" class="s0" d="m607.9 1008.1c-1.9 0-3.4-1.6-3.4-3.5c0-1.8 1.5-3.4 3.4-3.4c1.9 0 3.4 1.6 3.4 3.4c0 1.9-1.5 3.5-3.4 3.5z" />
				<path id="&lt;Path&gt;" class="s0" d="m635.6 876.1c-1.9 0-3.4-1.5-3.4-3.4c0-1.9 1.5-3.4 3.4-3.4c1.9 0 3.4 1.5 3.4 3.4c0 1.9-1.5 3.4-3.4 3.4z" />
				<path id="&lt;Path&gt;" class="s0" d="m363.8 902.8c-1.9 0-3.4-1.5-3.4-3.4c0-1.9 1.5-3.4 3.4-3.4c1.9 0 3.4 1.5 3.4 3.4c0 1.9-1.5 3.4-3.4 3.4z" />
				<path id="&lt;Path&gt;" class="s0" d="m452.6 721.8c-1.9 0-3.4-1.5-3.4-3.4c0-1.9 1.5-3.4 3.4-3.4c1.9 0 3.4 1.5 3.4 3.4c0 1.9-1.5 3.4-3.4 3.4z" />
				<path id="&lt;Path&gt;" class="s0" d="m524.5 1087.2c-1.8 0-3.4-1.5-3.4-3.4c0-1.9 1.6-3.4 3.4-3.4c1.9 0 3.5 1.5 3.5 3.4c0 1.9-1.6 3.4-3.5 3.4z" />
				<path id="&lt;Path&gt;" class="s0" d="m748.1 1054.9c-1.9 0-3.5-1.5-3.5-3.4c0-1.9 1.6-3.5 3.5-3.5c1.8 0 3.4 1.6 3.4 3.5c0 1.9-1.6 3.4-3.4 3.4z" />
				<path id="&lt;Path&gt;" class="s0" d="m630 1153.3c-1.9 0-3.5-1.5-3.5-3.4c0-1.9 1.6-3.4 3.5-3.4c1.8 0 3.4 1.5 3.4 3.4c0 1.9-1.6 3.4-3.4 3.4z" />
				<path id="&lt;Path&gt;" class="s0" d="m607.9 1008.1c-1.9 0-3.4-1.6-3.4-3.5c0-1.8 1.5-3.4 3.4-3.4c1.9 0 3.4 1.6 3.4 3.4c0 1.9-1.5 3.5-3.4 3.5z" />
				<path id="&lt;Path&gt;" class="s0" d="m532.2 1134.1c-1.9 0-3.4-1.5-3.4-3.4c0-1.9 1.5-3.5 3.4-3.5c1.9 0 3.5 1.6 3.5 3.5c0 1.9-1.6 3.4-3.5 3.4z" />
				<path id="&lt;Path&gt;" class="s0" d="m630 1153.3c-1.9 0-3.5-1.5-3.5-3.4c0-1.9 1.6-3.4 3.5-3.4c1.8 0 3.4 1.5 3.4 3.4c0 1.9-1.6 3.4-3.4 3.4z" />
				<path id="&lt;Path&gt;" class="s0" d="m448.9 1099c-1.9 0-3.4-1.6-3.4-3.5c0-1.8 1.5-3.4 3.4-3.4c1.9 0 3.5 1.6 3.5 3.4c0 1.9-1.6 3.5-3.5 3.5z" />
				<path id="&lt;Path&gt;" class="s0" d="m524.5 1087.2c-1.8 0-3.4-1.5-3.4-3.4c0-1.9 1.6-3.4 3.4-3.4c1.9 0 3.5 1.5 3.5 3.4c0 1.9-1.6 3.4-3.5 3.4z" />
				<path id="&lt;Path&gt;" class="s0" d="m339.9 1018.6c-1.9 0-3.4-1.6-3.4-3.5c0-1.8 1.5-3.4 3.4-3.4c1.9 0 3.4 1.6 3.4 3.4c0 1.9-1.5 3.5-3.4 3.5z" />
				<path id="&lt;Path&gt;" class="s0" d="m448.9 1099c-1.9 0-3.4-1.6-3.4-3.5c0-1.8 1.5-3.4 3.4-3.4c1.9 0 3.5 1.6 3.5 3.4c0 1.9-1.6 3.5-3.5 3.5z" />
				<path id="&lt;Path&gt;" class="s0" d="m363.8 902.8c-1.9 0-3.4-1.5-3.4-3.4c0-1.9 1.5-3.4 3.4-3.4c1.9 0 3.4 1.5 3.4 3.4c0 1.9-1.5 3.4-3.4 3.4z" />
				<path id="&lt;Path&gt;" class="s0" d="m339.9 1018.6c-1.9 0-3.4-1.6-3.4-3.5c0-1.8 1.5-3.4 3.4-3.4c1.9 0 3.4 1.6 3.4 3.4c0 1.9-1.5 3.5-3.4 3.5z" />
				<path id="&lt;Path&gt;" class="s0" d="m250.9 899.1c-1.9 0-3.5-1.6-3.5-3.5c0-1.8 1.6-3.4 3.5-3.4c1.8 0 3.4 1.6 3.4 3.4c0 1.9-1.6 3.5-3.4 3.5z" />
				<path id="&lt;Path&gt;" class="s0" d="m363.8 902.8c-1.9 0-3.4-1.5-3.4-3.4c0-1.9 1.5-3.4 3.4-3.4c1.9 0 3.4 1.5 3.4 3.4c0 1.9-1.5 3.4-3.4 3.4z" />
				<path id="&lt;Path&gt;" class="s0" d="m208.2 783c-1.9 0-3.5-1.6-3.5-3.4c0-1.9 1.6-3.5 3.5-3.5c1.9 0 3.4 1.6 3.4 3.5c0 1.8-1.5 3.4-3.4 3.4z" />
				<path id="&lt;Path&gt;" class="s0" d="m339.9 1018.6c-1.9 0-3.4-1.6-3.4-3.5c0-1.8 1.5-3.4 3.4-3.4c1.9 0 3.4 1.6 3.4 3.4c0 1.9-1.5 3.5-3.4 3.5z" />
				<path id="&lt;Path&gt;" class="s0" d="m277.1 548.5c-1.9 0-3.5-1.5-3.5-3.4c0-1.9 1.6-3.4 3.5-3.4c1.9 0 3.4 1.5 3.4 3.4c0 1.9-1.5 3.4-3.4 3.4z" />
				<path id="&lt;Path&gt;" class="s0" d="m452.6 721.8c-1.9 0-3.4-1.5-3.4-3.4c0-1.9 1.5-3.4 3.4-3.4c1.9 0 3.4 1.5 3.4 3.4c0 1.9-1.5 3.4-3.4 3.4z" />
				<path id="&lt;Path&gt;" class="s0" d="m208.2 783c-1.9 0-3.5-1.6-3.5-3.4c0-1.9 1.6-3.5 3.5-3.5c1.9 0 3.4 1.6 3.4 3.5c0 1.8-1.5 3.4-3.4 3.4z" />
				<path id="&lt;Path&gt;" class="s0" d="m277.1 548.5c-1.9 0-3.5-1.5-3.5-3.4c0-1.9 1.6-3.4 3.5-3.4c1.9 0 3.4 1.5 3.4 3.4c0 1.9-1.5 3.4-3.4 3.4z" />
				<path id="&lt;Path&gt;" class="s0" d="m198.3 633.2c-1.9 0-3.4-1.5-3.4-3.4c0-1.9 1.5-3.4 3.4-3.4c1.9 0 3.4 1.5 3.4 3.4c0 1.9-1.5 3.4-3.4 3.4z" />
				<path id="&lt;Path&gt;" class="s0" d="m224 516.2c-1.9 0-3.4-1.6-3.4-3.5c0-1.9 1.5-3.4 3.4-3.4c1.9 0 3.4 1.5 3.4 3.4c0 1.9-1.5 3.5-3.4 3.5z" />
				<path id="&lt;Path&gt;" class="s0" d="m466.9 531.1c-1.9 0-3.4-1.5-3.4-3.4c0-1.9 1.5-3.4 3.4-3.4c1.9 0 3.5 1.5 3.5 3.4c0 1.9-1.6 3.4-3.5 3.4z" />
				<path id="&lt;Path&gt;" class="s0" d="m452.6 721.8c-1.9 0-3.4-1.5-3.4-3.4c0-1.9 1.5-3.4 3.4-3.4c1.9 0 3.4 1.5 3.4 3.4c0 1.9-1.5 3.4-3.4 3.4z" />
				<path id="&lt;Path&gt;" class="s0" d="m635.6 876.1c-1.9 0-3.4-1.5-3.4-3.4c0-1.9 1.5-3.4 3.4-3.4c1.9 0 3.4 1.5 3.4 3.4c0 1.9-1.5 3.4-3.4 3.4z" />
				<path id="&lt;Path&gt;" class="s0" d="m748.1 1054.9c-1.9 0-3.5-1.5-3.5-3.4c0-1.9 1.6-3.5 3.5-3.5c1.8 0 3.4 1.6 3.4 3.5c0 1.9-1.6 3.4-3.4 3.4z" />
				<path id="&lt;Path&gt;" class="s0" d="m607.9 1008.1c-1.9 0-3.4-1.6-3.4-3.5c0-1.8 1.5-3.4 3.4-3.4c1.9 0 3.4 1.6 3.4 3.4c0 1.9-1.5 3.5-3.4 3.5z" />
				<path id="&lt;Path&gt;" class="s0" d="m809.8 918.1c-1.9 0-3.5-1.5-3.5-3.4c0-1.9 1.6-3.5 3.5-3.5c1.8 0 3.4 1.6 3.4 3.5c0 1.9-1.6 3.4-3.4 3.4z" />
				<path id="&lt;Path&gt;" class="s0" d="m635.6 876.1c-1.9 0-3.4-1.5-3.4-3.4c0-1.9 1.5-3.4 3.4-3.4c1.9 0 3.4 1.5 3.4 3.4c0 1.9-1.5 3.4-3.4 3.4z" />
				<path id="&lt;Path&gt;" class="s0" d="m730.2 677.4c-1.9 0-3.4-1.5-3.4-3.4c0-1.9 1.5-3.5 3.4-3.5c1.9 0 3.4 1.6 3.4 3.5c0 1.9-1.5 3.4-3.4 3.4z" />
				<path id="&lt;Path&gt;" class="s0" d="m452.6 721.8c-1.9 0-3.4-1.5-3.4-3.4c0-1.9 1.5-3.4 3.4-3.4c1.9 0 3.4 1.5 3.4 3.4c0 1.9-1.5 3.4-3.4 3.4z" />
				<path id="&lt;Path&gt;" class="s0" d="m692.9 505.4c-1.9 0-3.5-1.6-3.5-3.4c0-1.9 1.6-3.5 3.5-3.5c1.9 0 3.4 1.6 3.4 3.5c0 1.8-1.5 3.4-3.4 3.4z" />
				<path id="&lt;Path&gt;" class="s0" d="m466.9 531.1c-1.9 0-3.4-1.5-3.4-3.4c0-1.9 1.5-3.4 3.4-3.4c1.9 0 3.5 1.5 3.5 3.4c0 1.9-1.6 3.4-3.5 3.4z" />
				<path id="&lt;Path&gt;" class="s0" d="m347.9 423.5c-1.9 0-3.5-1.6-3.5-3.4c0-1.9 1.6-3.5 3.5-3.5c1.9 0 3.4 1.6 3.4 3.5c0 1.8-1.5 3.4-3.4 3.4z" />
				<path id="&lt;Path&gt;" class="s0" d="m224 516.2c-1.9 0-3.4-1.6-3.4-3.5c0-1.9 1.5-3.4 3.4-3.4c1.9 0 3.4 1.5 3.4 3.4c0 1.9-1.5 3.5-3.4 3.5z" />
				<path id="&lt;Path&gt;" class="s0" d="m336.5 334.4c-1.9 0-3.5-1.5-3.5-3.4c0-1.9 1.6-3.4 3.5-3.4c1.8 0 3.4 1.5 3.4 3.4c0 1.9-1.6 3.4-3.4 3.4z" />
				<path id="&lt;Path&gt;" class="s0" d="m347.9 423.5c-1.9 0-3.5-1.6-3.5-3.4c0-1.9 1.6-3.5 3.5-3.5c1.9 0 3.4 1.6 3.4 3.5c0 1.8-1.5 3.4-3.4 3.4z" />
				<path id="&lt;Path&gt;" class="s0" d="m553 406.6c-1.9 0-3.4-1.6-3.4-3.4c0-1.9 1.5-3.5 3.4-3.5c1.9 0 3.5 1.6 3.5 3.5c0 1.8-1.6 3.4-3.5 3.4z" />
				<path id="&lt;Path&gt;" class="s0" d="m466.9 531.1c-1.9 0-3.4-1.5-3.4-3.4c0-1.9 1.5-3.4 3.4-3.4c1.9 0 3.5 1.5 3.5 3.4c0 1.9-1.6 3.4-3.5 3.4z" />
				<path id="&lt;Path&gt;" class="s0" d="m454.7 313.6c-1.9 0-3.4-1.6-3.4-3.5c0-1.8 1.5-3.4 3.4-3.4c1.9 0 3.4 1.6 3.4 3.4c0 1.9-1.5 3.5-3.4 3.5z" />
				<path id="&lt;Path&gt;" class="s0" d="m347.9 423.5c-1.9 0-3.5-1.6-3.5-3.4c0-1.9 1.6-3.5 3.5-3.5c1.9 0 3.4 1.6 3.4 3.5c0 1.8-1.5 3.4-3.4 3.4z" />
				<path id="&lt;Path&gt;" class="s0" d="m451.3 253.7c-1.9 0-3.4-1.6-3.4-3.5c0-1.9 1.5-3.4 3.4-3.4c1.9 0 3.4 1.5 3.4 3.4c0 1.9-1.5 3.5-3.4 3.5z" />
				<path id="&lt;Path&gt;" class="s0" d="m336.5 334.4c-1.9 0-3.5-1.5-3.5-3.4c0-1.9 1.6-3.4 3.5-3.4c1.8 0 3.4 1.5 3.4 3.4c0 1.9-1.6 3.4-3.4 3.4z" />
				<path id="&lt;Path&gt;" class="s0" d="m454.7 313.6c-1.9 0-3.4-1.6-3.4-3.5c0-1.8 1.5-3.4 3.4-3.4c1.9 0 3.4 1.6 3.4 3.4c0 1.9-1.5 3.5-3.4 3.5z" />
				<path id="&lt;Path&gt;" class="s0" d="m451.3 253.7c-1.9 0-3.4-1.6-3.4-3.5c0-1.9 1.5-3.4 3.4-3.4c1.9 0 3.4 1.5 3.4 3.4c0 1.9-1.5 3.5-3.4 3.5z" />
				<path id="&lt;Path&gt;" class="s0" d="m582.8 206.2c-1.8 0-3.4-1.6-3.4-3.5c0-1.9 1.6-3.4 3.4-3.4c1.9 0 3.5 1.5 3.5 3.4c0 1.9-1.6 3.5-3.5 3.5z" />
				<path id="&lt;Path&gt;" class="s0" d="m454.7 313.6c-1.9 0-3.4-1.6-3.4-3.5c0-1.8 1.5-3.4 3.4-3.4c1.9 0 3.4 1.6 3.4 3.4c0 1.9-1.5 3.5-3.4 3.5z" />
				<path id="&lt;Path&gt;" class="s0" d="m553 406.6c-1.9 0-3.4-1.6-3.4-3.4c0-1.9 1.5-3.5 3.4-3.5c1.9 0 3.5 1.6 3.5 3.5c0 1.8-1.6 3.4-3.5 3.4z" />
				<path id="&lt;Path&gt;" class="s0" d="m730.2 677.4c-1.9 0-3.4-1.5-3.4-3.4c0-1.9 1.5-3.5 3.4-3.5c1.9 0 3.4 1.6 3.4 3.5c0 1.9-1.5 3.4-3.4 3.4z" />
				<path id="&lt;Path&gt;" class="s0" d="m809.8 918.1c-1.9 0-3.5-1.5-3.5-3.4c0-1.9 1.6-3.5 3.5-3.5c1.8 0 3.4 1.6 3.4 3.5c0 1.9-1.6 3.4-3.4 3.4z" />
				<path id="&lt;Path&gt;" class="s0" d="m735 1152.1c-1.9 0-3.5-1.5-3.5-3.4c0-1.9 1.6-3.5 3.5-3.5c1.9 0 3.4 1.6 3.4 3.5c0 1.9-1.5 3.4-3.4 3.4z" />
				<path id="&lt;Path&gt;" class="s0" d="m630 1153.3c-1.9 0-3.5-1.5-3.5-3.4c0-1.9 1.6-3.4 3.5-3.4c1.8 0 3.4 1.5 3.4 3.4c0 1.9-1.6 3.4-3.4 3.4z" />
				<path id="&lt;Path&gt;" class="s0" d="m905.3 1096.8c-1.9 0-3.4-1.6-3.4-3.4c0-1.9 1.5-3.5 3.4-3.5c1.9 0 3.5 1.6 3.5 3.5c0 1.8-1.6 3.4-3.5 3.4z" />
				<path id="&lt;Path&gt;" class="s0" d="m809.8 918.1c-1.9 0-3.5-1.5-3.5-3.4c0-1.9 1.6-3.5 3.5-3.5c1.8 0 3.4 1.6 3.4 3.5c0 1.9-1.6 3.4-3.4 3.4z" />
				<path id="&lt;Path&gt;" class="s0" d="m748.1 1054.9c-1.9 0-3.5-1.5-3.5-3.4c0-1.9 1.6-3.5 3.5-3.5c1.8 0 3.4 1.6 3.4 3.5c0 1.9-1.6 3.4-3.4 3.4z" />
				<path id="&lt;Path&gt;" class="s0" d="m794.3 1140.9c-1.9 0-3.4-1.6-3.4-3.5c0-1.9 1.5-3.4 3.4-3.4c1.9 0 3.4 1.5 3.4 3.4c0 1.9-1.5 3.5-3.4 3.5z" />
				<path id="&lt;Path&gt;" class="s0" d="m905.3 1096.8c-1.9 0-3.4-1.6-3.4-3.4c0-1.9 1.5-3.5 3.4-3.5c1.9 0 3.5 1.6 3.5 3.5c0 1.8-1.6 3.4-3.5 3.4z" />
				<path id="&lt;Path&gt;" class="s0" d="m748.1 1054.9c-1.9 0-3.5-1.5-3.5-3.4c0-1.9 1.6-3.5 3.5-3.5c1.8 0 3.4 1.6 3.4 3.5c0 1.9-1.6 3.4-3.4 3.4z" />
				<path id="&lt;Path&gt;" class="s0" d="m1006.8 1023.6c-1.9 0-3.4-1.5-3.4-3.4c0-1.9 1.5-3.5 3.4-3.5c1.9 0 3.4 1.6 3.4 3.5c0 1.9-1.5 3.4-3.4 3.4z" />
				<path id="&lt;Path&gt;" class="s0" d="m992.4 724.2c-1.9 0-3.4-1.5-3.4-3.4c0-1.9 1.5-3.4 3.4-3.4c1.9 0 3.4 1.5 3.4 3.4c0 1.9-1.5 3.4-3.4 3.4z" />
				<path id="&lt;Path&gt;" class="s0" d="m905.3 1096.8c-1.9 0-3.4-1.6-3.4-3.4c0-1.9 1.5-3.5 3.4-3.5c1.9 0 3.5 1.6 3.5 3.5c0 1.8-1.6 3.4-3.5 3.4z" />
				<path id="&lt;Path&gt;" class="s0" d="m1006.8 1023.6c-1.9 0-3.4-1.5-3.4-3.4c0-1.9 1.5-3.5 3.4-3.5c1.9 0 3.4 1.6 3.4 3.5c0 1.9-1.5 3.4-3.4 3.4z" />
				<path id="&lt;Path&gt;" class="s0" d="m809.8 918.1c-1.9 0-3.5-1.5-3.5-3.4c0-1.9 1.6-3.5 3.5-3.5c1.8 0 3.4 1.6 3.4 3.5c0 1.9-1.6 3.4-3.4 3.4z" />
				<path id="&lt;Path&gt;" class="s0" d="m1092.1 912.3c-1.9 0-3.5-1.6-3.5-3.4c0-1.9 1.6-3.5 3.5-3.5c1.9 0 3.4 1.6 3.4 3.5c0 1.8-1.5 3.4-3.4 3.4z" />
				<path id="&lt;Path&gt;" class="s0" d="m1006.8 1023.6c-1.9 0-3.4-1.5-3.4-3.4c0-1.9 1.5-3.5 3.4-3.5c1.9 0 3.4 1.6 3.4 3.5c0 1.9-1.5 3.4-3.4 3.4z" />
				<path id="&lt;Path&gt;" class="s0" d="m1100.9 769.3c-1.9 0-3.4-1.6-3.4-3.4c0-1.9 1.5-3.5 3.4-3.5c1.9 0 3.5 1.6 3.5 3.5c0 1.8-1.6 3.4-3.5 3.4z" />
				<path id="&lt;Path&gt;" class="s0" d="m1140.4 790.6c-1.9 0-3.4-1.5-3.4-3.4c0-1.9 1.5-3.4 3.4-3.4c1.9 0 3.5 1.5 3.5 3.4c0 1.9-1.6 3.4-3.5 3.4z" />
				<path id="&lt;Path&gt;" class="s0" d="m1092.1 912.3c-1.9 0-3.5-1.6-3.5-3.4c0-1.9 1.6-3.5 3.5-3.5c1.9 0 3.4 1.6 3.4 3.5c0 1.8-1.5 3.4-3.4 3.4z" />
				<path id="&lt;Path&gt;" class="s0" d="m1153.4 653.8c-1.9 0-3.4-1.5-3.4-3.4c0-1.9 1.5-3.5 3.4-3.5c1.9 0 3.4 1.6 3.4 3.5c0 1.9-1.5 3.4-3.4 3.4z" />
				<path id="&lt;Path&gt;" class="s0" d="m1100.9 769.3c-1.9 0-3.4-1.6-3.4-3.4c0-1.9 1.5-3.5 3.4-3.5c1.9 0 3.5 1.6 3.5 3.5c0 1.8-1.6 3.4-3.5 3.4z" />
				<path id="&lt;Path&gt;" class="s0" d="m1092.1 912.3c-1.9 0-3.5-1.6-3.5-3.4c0-1.9 1.6-3.5 3.5-3.5c1.9 0 3.4 1.6 3.4 3.5c0 1.8-1.5 3.4-3.4 3.4z" />
				<path id="&lt;Path&gt;" class="s0" d="m992.4 724.2c-1.9 0-3.4-1.5-3.4-3.4c0-1.9 1.5-3.4 3.4-3.4c1.9 0 3.4 1.5 3.4 3.4c0 1.9-1.5 3.4-3.4 3.4z" />
				<path id="&lt;Path&gt;" class="s0" d="m809.8 918.1c-1.9 0-3.5-1.5-3.5-3.4c0-1.9 1.6-3.5 3.5-3.5c1.8 0 3.4 1.6 3.4 3.5c0 1.9-1.6 3.4-3.4 3.4z" />
				<path id="&lt;Path&gt;" class="s0" d="m941.6 478.5c-1.9 0-3.4-1.5-3.4-3.4c0-1.9 1.5-3.4 3.4-3.4c1.9 0 3.5 1.5 3.5 3.4c0 1.9-1.6 3.4-3.5 3.4z" />
				<path id="&lt;Path&gt;" class="s0" d="m730.2 677.4c-1.9 0-3.4-1.5-3.4-3.4c0-1.9 1.5-3.5 3.4-3.5c1.9 0 3.4 1.6 3.4 3.5c0 1.9-1.5 3.4-3.4 3.4z" />
				<path id="&lt;Path&gt;" class="s0" d="m992.4 724.2c-1.9 0-3.4-1.5-3.4-3.4c0-1.9 1.5-3.4 3.4-3.4c1.9 0 3.4 1.5 3.4 3.4c0 1.9-1.5 3.4-3.4 3.4z" />
				<path id="&lt;Path&gt;" class="s0" d="m806 425.4c-1.9 0-3.4-1.5-3.4-3.4c0-1.9 1.5-3.4 3.4-3.4c1.9 0 3.4 1.5 3.4 3.4c0 1.9-1.5 3.4-3.4 3.4z" />
				<path id="&lt;Path&gt;" class="s0" d="m692.9 505.4c-1.9 0-3.5-1.6-3.5-3.4c0-1.9 1.6-3.5 3.5-3.5c1.9 0 3.4 1.6 3.4 3.5c0 1.8-1.5 3.4-3.4 3.4z" />
				<path id="&lt;Path&gt;" class="s0" d="m730.2 677.4c-1.9 0-3.4-1.5-3.4-3.4c0-1.9 1.5-3.5 3.4-3.5c1.9 0 3.4 1.6 3.4 3.5c0 1.9-1.5 3.4-3.4 3.4z" />
				<path id="&lt;Path&gt;" class="s0" d="m806 425.4c-1.9 0-3.4-1.5-3.4-3.4c0-1.9 1.5-3.4 3.4-3.4c1.9 0 3.4 1.5 3.4 3.4c0 1.9-1.5 3.4-3.4 3.4z" />
				<path id="&lt;Path&gt;" class="s0" d="m553 406.6c-1.9 0-3.4-1.6-3.4-3.4c0-1.9 1.5-3.5 3.4-3.5c1.9 0 3.5 1.6 3.5 3.5c0 1.8-1.6 3.4-3.5 3.4z" />
				<path id="&lt;Path&gt;" class="s0" d="m692.9 505.4c-1.9 0-3.5-1.6-3.5-3.4c0-1.9 1.6-3.5 3.5-3.5c1.9 0 3.4 1.6 3.4 3.5c0 1.8-1.5 3.4-3.4 3.4z" />
				<path id="&lt;Path&gt;" class="s0" d="m582.8 206.2c-1.8 0-3.4-1.6-3.4-3.5c0-1.9 1.6-3.4 3.4-3.4c1.9 0 3.5 1.5 3.5 3.4c0 1.9-1.6 3.5-3.5 3.5z" />
				<path id="&lt;Path&gt;" class="s0" d="m553 406.6c-1.9 0-3.4-1.6-3.4-3.4c0-1.9 1.5-3.5 3.4-3.5c1.9 0 3.5 1.6 3.5 3.5c0 1.8-1.6 3.4-3.5 3.4z" />
				<path id="&lt;Path&gt;" class="s0" d="m720.5 255.6c-1.9 0-3.4-1.5-3.4-3.4c0-1.9 1.5-3.4 3.4-3.4c1.9 0 3.5 1.5 3.5 3.4c0 1.9-1.6 3.4-3.5 3.4z" />
				<path id="&lt;Path&gt;" class="s0" d="m737.5 202.1c-1.9 0-3.4-1.5-3.4-3.4c0-1.9 1.5-3.4 3.4-3.4c1.9 0 3.4 1.5 3.4 3.4c0 1.9-1.5 3.4-3.4 3.4z" />
				<path id="&lt;Path&gt;" class="s0" d="m582.8 206.2c-1.8 0-3.4-1.6-3.4-3.5c0-1.9 1.6-3.4 3.4-3.4c1.9 0 3.5 1.5 3.5 3.4c0 1.9-1.6 3.5-3.5 3.5z" />
				<path id="&lt;Path&gt;" class="s0" d="m720.5 255.6c-1.9 0-3.4-1.5-3.4-3.4c0-1.9 1.5-3.4 3.4-3.4c1.9 0 3.5 1.5 3.5 3.4c0 1.9-1.6 3.4-3.5 3.4z" />
				<path id="&lt;Path&gt;" class="s0" d="m806 425.4c-1.9 0-3.4-1.5-3.4-3.4c0-1.9 1.5-3.4 3.4-3.4c1.9 0 3.4 1.5 3.4 3.4c0 1.9-1.5 3.4-3.4 3.4z" />
				<path id="&lt;Path&gt;" class="s0" d="m854.5 228.8c-1.9 0-3.4-1.5-3.4-3.4c0-1.9 1.5-3.5 3.4-3.5c1.9 0 3.4 1.6 3.4 3.5c0 1.9-1.5 3.4-3.4 3.4z" />
				<path id="&lt;Path&gt;" class="s0" d="m720.5 255.6c-1.9 0-3.4-1.5-3.4-3.4c0-1.9 1.5-3.4 3.4-3.4c1.9 0 3.5 1.5 3.5 3.4c0 1.9-1.6 3.4-3.5 3.4z" />
				<path id="&lt;Path&gt;" class="s0" d="m935.1 274.8c-1.9 0-3.4-1.6-3.4-3.5c0-1.8 1.5-3.4 3.4-3.4c1.9 0 3.5 1.6 3.5 3.4c0 1.9-1.6 3.5-3.5 3.5z" />
				<path id="&lt;Path&gt;" class="s0" d="m854.5 228.8c-1.9 0-3.4-1.5-3.4-3.4c0-1.9 1.5-3.5 3.4-3.5c1.9 0 3.4 1.6 3.4 3.5c0 1.9-1.5 3.4-3.4 3.4z" />
				<path id="&lt;Path&gt;" class="s0" d="m918.8 312.3c-1.9 0-3.4-1.5-3.4-3.4c0-1.9 1.5-3.5 3.4-3.5c1.9 0 3.4 1.6 3.4 3.5c0 1.9-1.5 3.4-3.4 3.4z" />
				<path id="&lt;Path&gt;" class="s0" d="m935.1 274.8c-1.9 0-3.4-1.6-3.4-3.5c0-1.8 1.5-3.4 3.4-3.4c1.9 0 3.5 1.6 3.5 3.4c0 1.9-1.6 3.5-3.5 3.5z" />
				<path id="&lt;Path&gt;" class="s0" d="m1026.5 351.7c-1.9 0-3.5-1.6-3.5-3.5c0-1.9 1.6-3.4 3.5-3.4c1.8 0 3.4 1.5 3.4 3.4c0 1.9-1.6 3.5-3.4 3.5z" />
				<path id="&lt;Path&gt;" class="s0" d="m918.8 312.3c-1.9 0-3.4-1.5-3.4-3.4c0-1.9 1.5-3.5 3.4-3.5c1.9 0 3.4 1.6 3.4 3.5c0 1.9-1.5 3.4-3.4 3.4z" />
				<path id="&lt;Path&gt;" class="s0" d="m806 425.4c-1.9 0-3.4-1.5-3.4-3.4c0-1.9 1.5-3.4 3.4-3.4c1.9 0 3.4 1.5 3.4 3.4c0 1.9-1.5 3.4-3.4 3.4z" />
				<path id="&lt;Path&gt;" class="s0" d="m941.6 478.5c-1.9 0-3.4-1.5-3.4-3.4c0-1.9 1.5-3.4 3.4-3.4c1.9 0 3.5 1.5 3.5 3.4c0 1.9-1.6 3.4-3.5 3.4z" />
				<path id="&lt;Path&gt;" class="s0" d="m992.4 724.2c-1.9 0-3.4-1.5-3.4-3.4c0-1.9 1.5-3.4 3.4-3.4c1.9 0 3.4 1.5 3.4 3.4c0 1.9-1.5 3.4-3.4 3.4z" />
				<path id="&lt;Path&gt;" class="s0" d="m1100.9 769.3c-1.9 0-3.4-1.6-3.4-3.4c0-1.9 1.5-3.5 3.4-3.5c1.9 0 3.5 1.6 3.5 3.5c0 1.8-1.6 3.4-3.5 3.4z" />
				<path id="&lt;Path&gt;" class="s0" d="m1102.6 461.7c-1.9 0-3.4-1.6-3.4-3.5c0-1.9 1.5-3.4 3.4-3.4c1.9 0 3.5 1.5 3.5 3.4c0 1.9-1.6 3.5-3.5 3.5z" />
				<path id="&lt;Path&gt;" class="s0" d="m918.8 312.3c-1.9 0-3.4-1.5-3.4-3.4c0-1.9 1.5-3.5 3.4-3.5c1.9 0 3.4 1.6 3.4 3.5c0 1.9-1.5 3.4-3.4 3.4z" />
				<path id="&lt;Path&gt;" class="s0" d="m1026.5 351.7c-1.9 0-3.5-1.6-3.5-3.5c0-1.9 1.6-3.4 3.5-3.4c1.8 0 3.4 1.5 3.4 3.4c0 1.9-1.6 3.5-3.4 3.5z" />
				<path id="&lt;Path&gt;" class="s0" d="m941.6 478.5c-1.9 0-3.4-1.5-3.4-3.4c0-1.9 1.5-3.4 3.4-3.4c1.9 0 3.5 1.5 3.5 3.4c0 1.9-1.6 3.4-3.5 3.4z" />
				<path id="&lt;Path&gt;" class="s0" d="m1102.6 461.7c-1.9 0-3.4-1.6-3.4-3.5c0-1.9 1.5-3.4 3.4-3.4c1.9 0 3.5 1.5 3.5 3.4c0 1.9-1.6 3.5-3.5 3.5z" />
				<path id="&lt;Path&gt;" class="s0" d="m941.6 478.5c-1.9 0-3.4-1.5-3.4-3.4c0-1.9 1.5-3.4 3.4-3.4c1.9 0 3.5 1.5 3.5 3.4c0 1.9-1.6 3.4-3.5 3.4z" />
				<path id="&lt;Path&gt;" class="s0" d="m1142.1 570c-1.9 0-3.5-1.5-3.5-3.4c0-1.9 1.6-3.5 3.5-3.5c1.8 0 3.4 1.6 3.4 3.5c0 1.9-1.6 3.4-3.4 3.4z" />
				<path id="&lt;Path&gt;" class="s0" d="m1153.4 653.8c-1.9 0-3.4-1.5-3.4-3.4c0-1.9 1.5-3.5 3.4-3.5c1.9 0 3.4 1.6 3.4 3.5c0 1.9-1.5 3.4-3.4 3.4z" />
				<path id="&lt;Path&gt;" class="s0" d="m992.4 724.2c-1.9 0-3.4-1.5-3.4-3.4c0-1.9 1.5-3.4 3.4-3.4c1.9 0 3.4 1.5 3.4 3.4c0 1.9-1.5 3.4-3.4 3.4z" />
				<path id="&lt;Path&gt;" class="s0" d="m1102.6 461.7c-1.9 0-3.4-1.6-3.4-3.5c0-1.9 1.5-3.4 3.4-3.4c1.9 0 3.5 1.5 3.5 3.4c0 1.9-1.6 3.5-3.5 3.5z" />
			</g>
		</g>
		<g id="&lt;Group&gt;">
			<g id="&lt;Group&gt;">
				<path id="&lt;Compound Path&gt;" fill-rule="evenodd" class="s1" d="m629.7 1169.5q0 0-0.1 0l-121.2-26.6q-0.1-0.1-0.1-0.1q-0.1 0-0.1 0l-188.2-116.5q-0.1 0-0.1 0q0 0 0 0q0-0.1 0-0.1q-0.1 0-0.1 0q0 0 0 0q0 0 0 0q0 0 0 0q0 0 0 0q0 0 0-0.1l-83.7-118.9q0 0 0-0.1q0 0 0 0l-49.2-136.3q0 0 0 0q0 0-0.1 0q0 0 0 0q0 0 0 0q0 0 0 0q0 0 0 0q0 0 0 0q0 0 0 0q0-0.1 0-0.2l-4.1-160.1q0-0.1 0-0.1q0 0 0 0q0-0.1 0-0.1l27.6-121.2q0-0.1 0-0.2l47.7-83.5q0 0 0 0q0 0 0 0q0 0 0 0q0 0 0 0q0 0 0-0.1l79.7-94.5q0-0.1 0.1-0.2l113.9-78.8q0-0.1 0.1-0.1q0 0 0 0q0 0 0 0l68.2-26.6c0.2-0.1 0.5 0 0.7 0.2c0.1 0.3 0.1 0.6-0.1 0.8l-28.2 25.8l52.6 0.3l18.7-41c0.1-0.2 0.3-0.3 0.5-0.4l86.8-11.7q0 0 0.1 0q0 0 0.1 0l131.6 31.2l9.4-17.5c0.2-0.3 0.5-0.4 0.8-0.3l126 50.1q0 0 0 0q0 0.1 0 0.1q0.1 0 0.2 0l115.2 88.3q0.1 0.1 0.1 0.1q0 0.1 0.1 0.1l75.8 105.1q0 0 0 0q0 0 0 0q0 0.1 0 0.1l45.7 115c0.1 0.3 0 0.6-0.3 0.8l-19.4 10.4l8.7 42.8l22.2 7.1c0.3 0.1 0.5 0.3 0.5 0.6l1.2 108.7q0 0.1 0 0.1q0 0 0 0.1l-19.9 101.2c0 0.1-0.1 0.3-0.3 0.4c-0.2 0.1-0.4 0-0.6 0l-8.2-5l-27.3 90.9q0 0 0 0q0 0.1-0.1 0.2l-83.2 112.9q-0.1 0.1-0.1 0.1q0 0 0 0q0 0 0 0q0 0 0 0q0 0 0 0q0 0 0 0q0 0 0 0h-0.1q0 0 0 0.1l-123.7 92.2c-0.2 0.1-0.5 0.1-0.7 0c-0.2-0.1-0.3-0.3-0.3-0.5l0.7-22.4l-120 67.1q-0.3 0.1-0.5 0.1l-240.4-70.7l85.8 79.9c0.2 0.2 0.3 0.5 0.2 0.7c-0.1 0.2-0.3 0.3-0.6 0.3zm-120.6-27.7l118.6 26.1l-86-80l-28.8-8zm35.8-54.2l239.1 70.2l-24.7-98.9zm215.6-28.8l24.6 98.6l87.5-113.6zm113.9-15.2l-87.2 113.2l118.2-66.1l1.7-51.5zm-425 18.7l58.7 78.4l3.7-61zm-125.2-34.8l182 112.6l-58.7-78.4zm582.3 63.9l-0.7 21.9l115.4-86zm1.8-52.4l-1.7 51l119.3-66.7zm-394.7 31.5l28.4 16.1l77.8-78.9l-102.6 3.4zm108-62.9l-77.8 78.9l215.3-28.8l-13.6-54.2zm-108.4 71l24.4 6.8l-24-13.6zm-64.8-18l63.6 17.7l0.4-7.2l-97.5-55.2zm-33.6-46.2l97.7 55.4l3.7-58.7zm-91.4 11.5l123 34.1l-34.1-45.5zm423.4-22.6l13.5 54.1l113.5-15.2l34.1-44.2zm161.7-4.2l-33 42.9l31.7-4.3zm1.2-1.1l-1.3 39.6l117.1-15.7zm-602-47.4l13.1 74.3l90-11.5zm-68.9-41.9l79.7 113.2l-26.8-81zm672.3 88.4l117.5 24.3l33.4-89.8zm152.4-66.1l-32.5 87.3l79.4-107.7zm-770.1 10.9l25 75.7l-12-67.7zm230-49.8l-109.4 121l102.2-3.4zm-119.8 5.7l9.5 114.6l109.6-121.3zm-103.5 5.9l111.7 108.6l-9.4-114.4zm7.3 45.4l100.9 61.5l-108.7-105.7zm217.2-58l-7.4 118.7l103.8-3.5l99.2-100.5zm196.6 15.4l-98.5 99.7l122.4-4zm1.2-0.1l24 95.7l160.2-5.3zm1-0.9l184.9 90.8l-12.2-124.8zm246.7-48.6l-60 139.2l152.4-66.1l36.6-98.4zm-73 14.3l12.2 123.6l59.3-137.6zm-604.5 68.8l13.3 8.1l-7.8-44.5l-17.2 1zm-54.1-33l52.6 32l-11.4-34.3zm861.2-74l-35.8 96.2l47.5-20.6zm-4.8-41.9l5.7 39.4l11.7 75.7l26.6-88.6zm-905.8-18l47.9 132.7l42.4-2.4l-12.3-37.2zm335.5 116.5l195.5 14.7l-178.7-198.4l-35.2 23zm356.4-172.6l-157.8 187.1l172.8-34zm-204.6-98.5l45.6 285.1l158.5-187.9zm-407 250.1l11.4 34.7l16.8-1zm273.2-163.4l178.2 197.8l-45.6-284.5zm-147.9 97l-94.3 99.8l102.1-5.7zm-126.3 63.2l30.5 36.3l95-100.5l-154.3-22.9zm127.5-63.3l7.8 94.1l118.8-6.7zm0.3-1.2l127.2 87.9l-18.1-159.2zm485.9-84.8l15.1 153.6l72.2-14.2l47.9-111zm-693.2 54.6l77.3 92.2l-28-84.8zm829.4-25.9l-47.6 110.3l128.6-25.4l-5.7-39.7zm122 71.9l7.8 4.6l17.4-88.3zm-45.7-27.4l44.6 26.8l28.3-94.2l-80.9 12.2zm-855.6-12.3l154.3 23l-71.1-79l-90.7 33.3zm84.4-56.4l71 78.8l8.1-107.9zm80.3-29.5l-8.1 107.7l100-141.5zm93.2-33.4l-99.7 141l107.7-70.5zm522.8 86.7l73.6 44.2l-7.8-54.1zm-829.9 25.3l47.9 7.1l-7.3-22zm22.9-68.5l-24.3 67.7l41.6-15.3zm-28.8-87.3l4 152.9l24.2-67.4zm29.5 85.5l17.8 53.8l90.2-33.1l-82.5-91.6zm852.8-97.9l-47.4 141.8l66.5-10.1zm-183.4 113.7l134.1 28.1l-39.2-87.9zm96-60.3l39 87.6l47.5-142.1zm88.6-53.8l19.1 132.1l80.8-12.2zm-569.3 56.9l7.9 69.7l34.5-22.6zm-258.5-30.3l83 92.1l80-29.4l11.2-150.3zm827.8-28.5l99.9 119.9l-23.2-113.3l-55.9-17.9zm78 7.1l22.4 108.8l-1.2-102zm-468.3 11.3l203.8 97.1l43-178.7zm247.9-80.6l-42.7 177.2l95-59.8zm-426.5 119.6l43.2 47.9l130.8-85.7zm-314.3-45.6l28.7 86.8l25-69.8zm230.8-70.2l-11.1 149.2l92.5-34zm1.1-0.7l81.6 115.5l175.5-38.1zm510-3.8l52.3 117.5l86.9-54.7zm-742 73.2l53.9 17.1l-27-135zm66.7-110.4l-11.4 127.3l173.5-87.3zm-39.1-9.6l26.8 133.8l11.1-124.4zm491-20.5l-26.4 147.5l246.6-81.5zm-286.7 69.8l257.6 77.4l-141.2-150.1zm117.4-73.2l141.8 150.7l26.3-147.5l-116.9-35.1zm556.3 121.6l54.1 17.3l-8.6-41.8zm-155.1-48.3l131.2 59.2l-2.2-17.9zm136.9 43.7l-4.1 15.2l19.3-10.3zm-6.6-2.2l1.8 15.4l3.6-13.6zm7 0.9l16.3 5.3l46.9-25.2l-25.2-122.8zm-7.1-2.2l5.9 1.9l38.3-143.8l-57.7 30.8zm-138.3-44.2l137.1 43.8l-13.3-110zm185.5-92.3l24.2 118.2l18.7-10zm-813.2-20.1l115.6 115.3l54.3-138.7zm-47.8 75.4l161.8 39.9l-115.3-114.9l-42.7 32.9zm218.9-98.4l-54 137.9l115.8-72.2zm233.1 68.3l219.7 65.9l-198.1-186.7zm23.2-120.9l198.1 186.7l-2.9-141.1zm266.8 62.4l-66.6 124.3l123.8-66.2l-5.6-46zm-70.4-16.5l2.9 139.9l66.3-123.7zm-710.3 95.5l37.4 9.3l3.7-40.9zm45.4-80.5l-44.4 77.8l40.8-37.4zm-3.8 42.2l-32.3 29.6l31.9-24.5zm332-17.3l115.8 34.7l21.5-120.4zm459.7-11.1l5.5 45.2l57.1-30.6zm-574.2-22l61.1 65l50.4-31.5zm-216.3 49.2l-0.4 5.3l41.4-31.9l-8.1-3.5zm3.8-42.8l-3.6 41l31.5-28.9zm786.5 14.3l62.9 14.7l-73.5-101.9zm-573.5-21.8l112.4 33.7l136.5-85.1zm-133.7-25.9l-39.5 48.6l169.1-23.2l-91-60.8zm-49.2 45.1l7.9 3.5l6-16.2zm704.4-9.6l50.8 11.8l-10.5-87.1zm-688.6-4.9l-5.7 15.6l33.1-40.7zm-45.4 1.6l28.3 12.4l16-14.7l32.6-89zm663-13.4l69.8 16.3l40.8-76.3l-111.7 5.4zm-584-80.1l-32.7 89.3l31.6-29l32.2-39.5zm192.4-46.1l-60.3 132.2l251.4-52zm-153 71l90.9 60.8l-13.8-131.6zm78.3-71.7l13.8 131.5l59.9-131.2l-50.8-21.3zm272.2 81.6l192.9 45.1l-1.1-54.3zm-357.8-13.3l-27 33.3l32.4-29.7zm497.6-62.8l-141.5 74.9l193.5-9.3l-1-46.7zm-336.7-5.9l191.4 80.4l-48.6-111.2l-128.4-0.7zm239.6-30.1l-45.8 110.3l141.4-74.9zm-95.5-0.7l48.5 110.8l45.8-110.3zm244.8 56l0.9 46.3l109.9-5.3zm-549.1 42.5l5.5 3.7l78.1-71.5l-3.3-31zm-32.1-21.5l31.1 20.8l78.6-96.8zm581.2-22.3l110.2 40.8l-111.1-85.2zm-50.8-18.8l49.6 18.4l-1-44.2zm-94.8-35.1l93.3 34.6l48.6-25.8zm-294.7 8.5l50.3 21.1l14.2-31.1l-53.3-0.3zm-27.2-10.1l3.2 30.5l21.8-20zm2.3-0.3l23.7 9.9l10.6-9.7zm316.6 0.6l140.2 8.7l-128.4-30.5zm12.3-22.9l126.9 30.2l-117.8-46.9zm-109.1 22.3l92.9 0.5l-115.6-52.5zm-18.1-51.2l113.5 51.5l11.8-21.8zm-110.6 50.5l127.3 0.7l-22.9-52.6l-86.1 11.7zm-91.1-0.5l35.5 0.2l26.7-24.5z" />
			</g>
			<g id="&lt;Group&gt;">
				<path id="&lt;Path&gt;" class="s1" d="m459.3 232.3c0 4-3.2 7.2-7.3 7.2c-4 0-7.2-3.2-7.2-7.2c0-4.1 3.2-7.3 7.2-7.3c4.1 0 7.3 3.2 7.3 7.3z" />
				<path id="&lt;Path&gt;" class="s1" d="m525.7 205.6c0 3.1-2.5 5.6-5.5 5.6c-3.1 0-5.5-2.5-5.5-5.6c0-3 2.4-5.5 5.5-5.5c3 0 5.5 2.5 5.5 5.5z" />
				<path id="&lt;Path&gt;" class="s1" d="m218.1 489.2c0 4-3.2 7.3-7.2 7.3c-4 0-7.3-3.3-7.3-7.3c0-4 3.3-7.2 7.3-7.2c4 0 7.2 3.2 7.2 7.2z" />
				<path id="&lt;Path&gt;" class="s1" d="m190.5 610.5c0 4-3.2 7.2-7.2 7.2c-4.1 0-7.3-3.2-7.3-7.2c0-4.1 3.2-7.3 7.3-7.3c4 0 7.2 3.2 7.2 7.3z" />
				<path id="&lt;Path&gt;" class="s1" d="m327.5 1025.8c0 4-3.2 7.3-7.2 7.3c-4 0-7.3-3.3-7.3-7.3c0-4 3.3-7.2 7.3-7.2c4 0 7.2 3.2 7.2 7.2z" />
				<path id="&lt;Path&gt;" class="s1" d="m549.3 1087.3c0 4-3.3 7.3-7.3 7.3c-4 0-7.3-3.3-7.3-7.3c0-4 3.3-7.2 7.3-7.2c4 0 7.3 3.2 7.3 7.2z" />
				<path id="&lt;Path&gt;" class="s1" d="m419.8 1014c0 4-3.3 7.3-7.3 7.3c-4 0-7.3-3.3-7.3-7.3c0-4 3.3-7.3 7.3-7.3c4 0 7.3 3.3 7.3 7.3z" />
				<path id="&lt;Path&gt;" class="s1" d="m916.3 997.5c0 4-3.3 7.3-7.3 7.3c-4 0-7.3-3.3-7.3-7.3c0-4 3.3-7.3 7.3-7.3c4 0 7.3 3.3 7.3 7.3z" />
				<path id="&lt;Path&gt;" class="s1" d="m1025.3 744.7c0 4-3.3 7.2-7.3 7.2c-4 0-7.3-3.2-7.3-7.2c0-4 3.3-7.3 7.3-7.3c4 0 7.3 3.3 7.3 7.3z" />
				<path id="&lt;Path&gt;" class="s1" d="m888.6 716c0 4-3.3 7.3-7.3 7.3c-4 0-7.2-3.3-7.2-7.3c0-4 3.2-7.3 7.2-7.3c4 0 7.3 3.3 7.3 7.3z" />
				<path id="&lt;Path&gt;" class="s1" d="m916.3 997.5c0 4-3.3 7.3-7.3 7.3c-4 0-7.3-3.3-7.3-7.3c0-4 3.3-7.3 7.3-7.3c4 0 7.3 3.3 7.3 7.3z" />
				<path id="&lt;Path&gt;" class="s1" d="m728.8 905.5c0 4-3.3 7.3-7.3 7.3c-4 0-7.3-3.3-7.3-7.3c0-4 3.3-7.3 7.3-7.3c4 0 7.3 3.3 7.3 7.3z" />
				<path id="&lt;Path&gt;" class="s1" d="m1107.3 831c0 4-3.3 7.3-7.3 7.3c-4 0-7.3-3.3-7.3-7.3c0-4 3.3-7.3 7.3-7.3c4 0 7.3 3.3 7.3 7.3z" />
				<path id="&lt;Path&gt;" class="s1" d="m1073.8 599.5c0 4-3.3 7.3-7.3 7.3c-4 0-7.3-3.3-7.3-7.3c0-4 3.3-7.3 7.3-7.3c4 0 7.3 3.3 7.3 7.3z" />
				<path id="&lt;Path&gt;" class="s1" d="m1175.7 721.8c0 4-3.3 7.3-7.3 7.3c-4 0-7.2-3.3-7.2-7.3c0-4 3.2-7.2 7.2-7.2c4 0 7.3 3.2 7.3 7.2z" />
				<path id="&lt;Path&gt;" class="s1" d="m1025.3 744.7c0 4-3.3 7.2-7.3 7.2c-4 0-7.3-3.2-7.3-7.2c0-4 3.3-7.3 7.3-7.3c4 0 7.3 3.3 7.3 7.3z" />
				<path id="&lt;Path&gt;" class="s1" d="m1154 823c0 3.1-2.4 5.5-5.5 5.5c-3 0-5.5-2.4-5.5-5.5c0-3 2.5-5.5 5.5-5.5c3.1 0 5.5 2.5 5.5 5.5z" />
				<path id="&lt;Path&gt;" class="s1" d="m1175.7 721.8c0 4-3.3 7.3-7.3 7.3c-4 0-7.2-3.3-7.2-7.3c0-4 3.2-7.2 7.2-7.2c4 0 7.3 3.2 7.3 7.2z" />
				<path id="&lt;Path&gt;" class="s1" d="m1119.4 909.3c0 4-3.2 7.3-7.3 7.3c-4 0-7.2-3.3-7.2-7.3c0-4 3.2-7.2 7.2-7.2c4.1 0 7.3 3.2 7.3 7.2z" />
				<path id="&lt;Path&gt;" class="s1" d="m1107.3 831c0 4-3.3 7.3-7.3 7.3c-4 0-7.3-3.3-7.3-7.3c0-4 3.3-7.3 7.3-7.3c4 0 7.3 3.3 7.3 7.3z" />
				<path id="&lt;Path&gt;" class="s1" d="m1036.1 1022.3c0 4-3.2 7.2-7.2 7.2c-4 0-7.3-3.2-7.3-7.2c0-4 3.3-7.3 7.3-7.3c4 0 7.2 3.3 7.2 7.3z" />
				<path id="&lt;Path&gt;" class="s1" d="m1120.2 909.3c0 4.5-3.6 8.1-8.1 8.1c-4.4 0-8-3.6-8-8.1c0-4.4 3.6-8.1 8-8.1c4.5 0 8.1 3.7 8.1 8.1z" />
				<path id="&lt;Path&gt;" class="s1" d="m916.3 997.5c0 4-3.3 7.3-7.3 7.3c-4 0-7.3-3.3-7.3-7.3c0-4 3.3-7.3 7.3-7.3c4 0 7.3 3.3 7.3 7.3z" />
				<path id="&lt;Path&gt;" class="s1" d="m1036.1 1022.3c0 4-3.2 7.2-7.2 7.2c-4 0-7.3-3.2-7.3-7.2c0-4 3.3-7.3 7.3-7.3c4 0 7.2 3.3 7.2 7.3z" />
				<path id="&lt;Path&gt;" class="s1" d="m913.8 1114.5c0 4.8-3.9 8.7-8.7 8.7c-4.8 0-8.7-3.9-8.7-8.7c0-4.8 3.9-8.7 8.7-8.7c4.8 0 8.7 3.9 8.7 8.7z" />
				<path id="&lt;Path&gt;" class="s1" d="m920.1 997.5c0 6.1-5 11.1-11.1 11.1c-6.1 0-11.1-5-11.1-11.1c0-6.1 5-11.1 11.1-11.1c6.1 0 11.1 5 11.1 11.1z" />
				<path id="&lt;Path&gt;" class="s1" d="m792.1 1158.7c0 4-3.2 7.3-7.2 7.3c-4 0-7.3-3.3-7.3-7.3c0-4 3.3-7.3 7.3-7.3c4 0 7.2 3.3 7.2 7.3z" />
				<path id="&lt;Path&gt;" class="s1" d="m1036.1 1022.3c0 4-3.2 7.2-7.2 7.2c-4 0-7.3-3.2-7.3-7.2c0-4 3.3-7.3 7.3-7.3c4 0 7.2 3.3 7.2 7.3z" />
				<path id="&lt;Path&gt;" class="s1" d="m549.3 1087.3c0 4-3.3 7.3-7.3 7.3c-4 0-7.3-3.3-7.3-7.3c0-4 3.3-7.2 7.3-7.2c4 0 7.3 3.2 7.3 7.2z" />
				<path id="&lt;Path&gt;" class="s1" d="m728.8 905.5c0 4-3.3 7.3-7.3 7.3c-4 0-7.3-3.3-7.3-7.3c0-4 3.3-7.3 7.3-7.3c4 0 7.3 3.3 7.3 7.3z" />
				<path id="&lt;Path&gt;" class="s1" d="m792.1 1158.7c0 4-3.2 7.3-7.2 7.3c-4 0-7.3-3.3-7.3-7.3c0-4 3.3-7.3 7.3-7.3c4 0 7.2 3.3 7.2 7.3z" />
				<path id="&lt;Path&gt;" class="s1" d="m554.3 1087.3c0 6.8-5.5 12.3-12.3 12.3c-6.8 0-12.3-5.5-12.3-12.3c0-6.7 5.5-12.2 12.3-12.2c6.8 0 12.3 5.5 12.3 12.2z" />
				<path id="&lt;Path&gt;" class="s1" d="m637 1168.9c0 4-3.3 7.3-7.3 7.3c-4 0-7.2-3.3-7.2-7.3c0-4 3.2-7.2 7.2-7.2c4 0 7.3 3.2 7.3 7.2z" />
				<path id="&lt;Path&gt;" class="s1" d="m515.8 1142.3c0 4-3.3 7.2-7.3 7.2c-4 0-7.3-3.2-7.3-7.2c0-4 3.3-7.3 7.3-7.3c4 0 7.3 3.3 7.3 7.3z" />
				<path id="&lt;Path&gt;" class="s1" d="m531.3 890.7c0 4-3.3 7.2-7.3 7.2c-4 0-7.3-3.2-7.3-7.2c0-4 3.3-7.3 7.3-7.3c4 0 7.3 3.3 7.3 7.3z" />
				<path id="&lt;Path&gt;" class="s1" d="m728.8 905.5c0 4-3.3 7.3-7.3 7.3c-4 0-7.3-3.3-7.3-7.3c0-4 3.3-7.3 7.3-7.3c4 0 7.3 3.3 7.3 7.3z" />
				<path id="&lt;Path&gt;" class="s1" d="m888.6 716c0 4-3.3 7.3-7.3 7.3c-4 0-7.2-3.3-7.2-7.3c0-4 3.2-7.3 7.2-7.3c4 0 7.3 3.3 7.3 7.3z" />
				<path id="&lt;Path&gt;" class="s1" d="m1073.8 599.5c0 4-3.3 7.3-7.3 7.3c-4 0-7.3-3.3-7.3-7.3c0-4 3.3-7.3 7.3-7.3c4 0 7.3 3.3 7.3 7.3z" />
				<path id="&lt;Path&gt;" class="s1" d="m1027.8 744.7c0 5.4-4.4 9.7-9.8 9.7c-5.4 0-9.8-4.3-9.8-9.7c0-5.4 4.4-9.8 9.8-9.8c5.4 0 9.8 4.4 9.8 9.8z" />
				<path id="&lt;Path&gt;" class="s1" d="m932.1 535.6c0 4-3.3 7.3-7.3 7.3c-4 0-7.3-3.3-7.3-7.3c0-4 3.3-7.3 7.3-7.3c4 0 7.3 3.3 7.3 7.3z" />
				<path id="&lt;Path&gt;" class="s1" d="m892.9 716c0 6.4-5.2 11.6-11.6 11.6c-6.4 0-11.5-5.2-11.5-11.6c0-6.4 5.1-11.6 11.5-11.6c6.4 0 11.6 5.2 11.6 11.6z" />
				<path id="&lt;Path&gt;" class="s1" d="m682.8 618c0 4-3.3 7.3-7.3 7.3c-4 0-7.3-3.3-7.3-7.3c0-4 3.3-7.3 7.3-7.3c4 0 7.3 3.3 7.3 7.3z" />
				<path id="&lt;Path&gt;" class="s1" d="m732.9 905.5c0 6.3-5.1 11.4-11.4 11.4c-6.3 0-11.4-5.1-11.4-11.4c0-6.3 5.1-11.4 11.4-11.4c6.3 0 11.4 5.1 11.4 11.4z" />
				<path id="&lt;Path&gt;" class="s1" d="m504.6 656.7c0 4-3.3 7.2-7.3 7.2c-4 0-7.2-3.2-7.2-7.2c0-4 3.2-7.3 7.2-7.3c4 0 7.3 3.3 7.3 7.3z" />
				<path id="&lt;Path&gt;" class="s1" d="m531.3 890.7c0 4-3.3 7.2-7.3 7.2c-4 0-7.3-3.2-7.3-7.2c0-4 3.3-7.3 7.3-7.3c4 0 7.3 3.3 7.3 7.3z" />
				<path id="&lt;Path&gt;" class="s1" d="m419.8 1014c0 4-3.3 7.3-7.3 7.3c-4 0-7.3-3.3-7.3-7.3c0-4 3.3-7.3 7.3-7.3c4 0 7.3 3.3 7.3 7.3z" />
				<path id="&lt;Path&gt;" class="s1" d="m517.4 1142.3c0 4.9-4 8.9-8.9 8.9c-4.9 0-8.9-4-8.9-8.9c0-4.9 4-8.9 8.9-8.9c4.9 0 8.9 4 8.9 8.9z" />
				<path id="&lt;Path&gt;" class="s1" d="m327.5 1025.8c0 4-3.2 7.3-7.2 7.3c-4 0-7.3-3.3-7.3-7.3c0-4 3.3-7.2 7.3-7.2c4 0 7.2 3.2 7.2 7.2z" />
				<path id="&lt;Path&gt;" class="s1" d="m419.8 1014c0 4-3.3 7.3-7.3 7.3c-4 0-7.3-3.3-7.3-7.3c0-4 3.3-7.3 7.3-7.3c4 0 7.3 3.3 7.3 7.3z" />
				<path id="&lt;Path&gt;" class="s1" d="m402.3 801.5c0 4-3.3 7.3-7.3 7.3c-4 0-7.3-3.3-7.3-7.3c0-4 3.3-7.3 7.3-7.3c4 0 7.3 3.3 7.3 7.3z" />
				<path id="&lt;Path&gt;" class="s1" d="m531.3 890.7c0 4-3.3 7.2-7.3 7.2c-4 0-7.3-3.2-7.3-7.2c0-4 3.3-7.3 7.3-7.3c4 0 7.3 3.3 7.3 7.3z" />
				<path id="&lt;Path&gt;" class="s1" d="m305.9 903.3c0 4-3.2 7.3-7.2 7.3c-4 0-7.3-3.3-7.3-7.3c0-4 3.3-7.2 7.3-7.2c4 0 7.2 3.2 7.2 7.2z" />
				<path id="&lt;Path&gt;" class="s1" d="m419.8 1014c0 4-3.3 7.3-7.3 7.3c-4 0-7.3-3.3-7.3-7.3c0-4 3.3-7.3 7.3-7.3c4 0 7.3 3.3 7.3 7.3z" />
				<path id="&lt;Path&gt;" class="s1" d="m243.9 906.9c0 4-3.3 7.2-7.3 7.2c-4 0-7.2-3.2-7.2-7.2c0-4 3.2-7.3 7.2-7.3c4 0 7.3 3.3 7.3 7.3z" />
				<path id="&lt;Path&gt;" class="s1" d="m327.5 1025.8c0 4-3.2 7.3-7.2 7.3c-4 0-7.3-3.3-7.3-7.3c0-4 3.3-7.2 7.3-7.2c4 0 7.2 3.2 7.2 7.2z" />
				<path id="&lt;Path&gt;" class="s1" d="m305.9 903.3c0 4-3.2 7.3-7.2 7.3c-4 0-7.3-3.3-7.3-7.3c0-4 3.3-7.2 7.3-7.2c4 0 7.2 3.2 7.2 7.2z" />
				<path id="&lt;Path&gt;" class="s1" d="m243.9 906.9c0 4-3.3 7.2-7.3 7.2c-4 0-7.2-3.2-7.2-7.2c0-4 3.2-7.3 7.2-7.3c4 0 7.3 3.3 7.3 7.3z" />
				<path id="&lt;Path&gt;" class="s1" d="m194.7 770.6c0 4-3.3 7.3-7.3 7.3c-4 0-7.2-3.3-7.2-7.3c0-4 3.2-7.2 7.2-7.2c4 0 7.3 3.2 7.3 7.2z" />
				<path id="&lt;Path&gt;" class="s1" d="m308.2 903.3c0 5.3-4.3 9.5-9.5 9.5c-5.3 0-9.5-4.2-9.5-9.5c0-5.2 4.2-9.5 9.5-9.5c5.2 0 9.5 4.3 9.5 9.5z" />
				<path id="&lt;Path&gt;" class="s1" d="m402.3 801.5c0 4-3.3 7.3-7.3 7.3c-4 0-7.3-3.3-7.3-7.3c0-4 3.3-7.3 7.3-7.3c4 0 7.3 3.3 7.3 7.3z" />
				<path id="&lt;Path&gt;" class="s1" d="m682.8 618c0 4-3.3 7.3-7.3 7.3c-4 0-7.3-3.3-7.3-7.3c0-4 3.3-7.3 7.3-7.3c4 0 7.3 3.3 7.3 7.3z" />
				<path id="&lt;Path&gt;" class="s1" d="m932.1 535.6c0 4-3.3 7.3-7.3 7.3c-4 0-7.3-3.3-7.3-7.3c0-4 3.3-7.3 7.3-7.3c4 0 7.3 3.3 7.3 7.3z" />
				<path id="&lt;Path&gt;" class="s1" d="m1171.6 613.1c0 2.4-2 4.4-4.4 4.4c-2.5 0-4.5-2-4.5-4.4c0-2.5 2-4.5 4.5-4.5c2.4 0 4.4 2 4.4 4.5z" />
				<path id="&lt;Path&gt;" class="s1" d="m1175.7 721.8c0 4-3.3 7.3-7.3 7.3c-4 0-7.2-3.3-7.2-7.3c0-4 3.2-7.2 7.2-7.2c4 0 7.3 3.2 7.3 7.2z" />
				<path id="&lt;Path&gt;" class="s1" d="m1117.1 436.6c0 4-3.2 7.3-7.2 7.3c-4 0-7.3-3.3-7.3-7.3c0-4 3.3-7.2 7.3-7.2c4 0 7.2 3.2 7.2 7.2z" />
				<path id="&lt;Path&gt;" class="s1" d="m932.1 535.6c0 4-3.3 7.3-7.3 7.3c-4 0-7.3-3.3-7.3-7.3c0-4 3.3-7.3 7.3-7.3c4 0 7.3 3.3 7.3 7.3z" />
				<path id="&lt;Path&gt;" class="s1" d="m1073.8 599.5c0 4-3.3 7.3-7.3 7.3c-4 0-7.3-3.3-7.3-7.3c0-4 3.3-7.3 7.3-7.3c4 0 7.3 3.3 7.3 7.3z" />
				<path id="&lt;Path&gt;" class="s1" d="m1162.8 551.6c0 4-3.3 7.3-7.3 7.3c-4 0-7.2-3.3-7.2-7.3c0-4 3.2-7.2 7.2-7.2c4 0 7.3 3.2 7.3 7.2z" />
				<path id="&lt;Path&gt;" class="s1" d="m1117.1 436.6c0 4-3.2 7.3-7.2 7.3c-4 0-7.3-3.3-7.3-7.3c0-4 3.3-7.2 7.3-7.2c4 0 7.2 3.2 7.2 7.2z" />
				<path id="&lt;Path&gt;" class="s1" d="m1073.8 599.5c0 4-3.3 7.3-7.3 7.3c-4 0-7.3-3.3-7.3-7.3c0-4 3.3-7.3 7.3-7.3c4 0 7.3 3.3 7.3 7.3z" />
				<path id="&lt;Path&gt;" class="s1" d="m731.3 346.4c0 4-3.3 7.3-7.3 7.3c-4 0-7.3-3.3-7.3-7.3c0-4 3.3-7.3 7.3-7.3c4 0 7.3 3.3 7.3 7.3z" />
				<path id="&lt;Path&gt;" class="s1" d="m1117.1 436.6c0 4-3.2 7.3-7.2 7.3c-4 0-7.3-3.3-7.3-7.3c0-4 3.3-7.2 7.3-7.2c4 0 7.2 3.2 7.2 7.2z" />
				<path id="&lt;Path&gt;" class="s1" d="m932.1 535.6c0 4-3.3 7.3-7.3 7.3c-4 0-7.3-3.3-7.3-7.3c0-4 3.3-7.3 7.3-7.3c4 0 7.3 3.3 7.3 7.3z" />
				<path id="&lt;Path&gt;" class="s1" d="m926 243.2c0 4-3.2 7.3-7.2 7.3c-4 0-7.3-3.3-7.3-7.3c0-4 3.3-7.3 7.3-7.3c4 0 7.2 3.3 7.2 7.3z" />
				<path id="&lt;Path&gt;" class="s1" d="m1039.8 331.5c0 3.2-2.6 5.8-5.7 5.8c-3.2 0-5.8-2.6-5.8-5.8c0-3.1 2.6-5.7 5.8-5.7c3.1 0 5.7 2.6 5.7 5.7z" />
				<path id="&lt;Path&gt;" class="s1" d="m777.9 234c0 4-3.2 7.3-7.2 7.3c-4 0-7.3-3.3-7.3-7.3c0-4 3.3-7.3 7.3-7.3c4 0 7.2 3.3 7.2 7.3z" />
				<path id="&lt;Path&gt;" class="s1" d="m800 193.1c0 4-3.2 7.3-7.2 7.3c-4.1 0-7.3-3.3-7.3-7.3c0-4 3.2-7.3 7.3-7.3c4 0 7.2 3.3 7.2 7.3z" />
				<path id="&lt;Path&gt;" class="s1" d="m872.6 270.1c0 2.4-2 4.4-4.4 4.4c-2.4 0-4.3-2-4.3-4.4c0-2.4 1.9-4.4 4.3-4.4c2.4 0 4.4 2 4.4 4.4z" />
				<path id="&lt;Path&gt;" class="s1" d="m924.1 289.3c0 2.3-1.9 4.2-4.2 4.2c-2.3 0-4.2-1.9-4.2-4.2c0-2.3 1.9-4.2 4.2-4.2c2.3 0 4.2 1.9 4.2 4.2z" />
				<path id="&lt;Path&gt;" class="s1" d="m925.4 392.5c0 2.3-1.9 4.2-4.2 4.2c-2.3 0-4.2-1.9-4.2-4.2c0-2.4 1.9-4.2 4.2-4.2c2.3 0 4.2 1.8 4.2 4.2z" />
				<path id="&lt;Path&gt;" class="s1" d="m925.1 336.5c0 2.4-1.9 4.2-4.3 4.2c-2.3 0-4.2-1.8-4.2-4.2c0-2.3 1.9-4.2 4.2-4.2c2.4 0 4.3 1.9 4.3 4.2z" />
				<path id="&lt;Path&gt;" class="s1" d="m996.2 409.3c0 2.3-1.9 4.2-4.2 4.2c-2.3 0-4.2-1.9-4.2-4.2c0-2.4 1.9-4.3 4.2-4.3c2.3 0 4.2 1.9 4.2 4.3z" />
				<path id="&lt;Path&gt;" class="s1" d="m1048.9 421.1c0 2.3-1.9 4.2-4.2 4.2c-2.4 0-4.3-1.9-4.3-4.2c0-2.4 1.9-4.3 4.3-4.3c2.3 0 4.2 1.9 4.2 4.3z" />
				<path id="&lt;Path&gt;" class="s1" d="m1055.2 468.3c0 2.3-1.9 4.2-4.2 4.2c-2.3 0-4.2-1.9-4.2-4.2c0-2.4 1.9-4.3 4.2-4.3c2.3 0 4.2 1.9 4.2 4.3z" />
				<path id="&lt;Path&gt;" class="s1" d="m1068.2 579.5c0 2.3-1.9 4.2-4.2 4.2c-2.3 0-4.2-1.9-4.2-4.2c0-2.3 1.9-4.2 4.2-4.2c2.3 0 4.2 1.9 4.2 4.2z" />
				<path id="&lt;Path&gt;" class="s1" d="m1092.7 588c0 2.3-1.9 4.2-4.2 4.2c-2.3 0-4.2-1.9-4.2-4.2c0-2.3 1.9-4.2 4.2-4.2c2.3 0 4.2 1.9 4.2 4.2z" />
				<path id="&lt;Path&gt;" class="s1" d="m982.7 654.5c0 2.3-1.9 4.2-4.2 4.2c-2.3 0-4.2-1.9-4.2-4.2c0-2.3 1.9-4.2 4.2-4.2c2.3 0 4.2 1.9 4.2 4.2z" />
				<path id="&lt;Path&gt;" class="s1" d="m1090.2 734.5c0 2.3-1.9 4.2-4.2 4.2c-2.3 0-4.2-1.9-4.2-4.2c0-2.3 1.9-4.2 4.2-4.2c2.3 0 4.2 1.9 4.2 4.2z" />
				<path id="&lt;Path&gt;" class="s1" d="m1098.2 790.5c0 2.3-1.9 4.2-4.2 4.2c-2.3 0-4.2-1.9-4.2-4.2c0-2.3 1.9-4.2 4.2-4.2c2.3 0 4.2 1.9 4.2 4.2z" />
				<path id="&lt;Path&gt;" class="s1" d="m974.7 856c0 2.3-1.9 4.2-4.2 4.2c-2.3 0-4.2-1.9-4.2-4.2c0-2.3 1.9-4.2 4.2-4.2c2.3 0 4.2 1.9 4.2 4.2z" />
				<path id="&lt;Path&gt;" class="s1" d="m901.2 872c0 2.3-1.9 4.2-4.2 4.2c-2.3 0-4.2-1.9-4.2-4.2c0-2.3 1.9-4.2 4.2-4.2c2.3 0 4.2 1.9 4.2 4.2z" />
				<path id="&lt;Path&gt;" class="s1" d="m764.2 1059c0 2.3-1.9 4.2-4.2 4.2c-2.3 0-4.2-1.9-4.2-4.2c0-2.3 1.9-4.2 4.2-4.2c2.3 0 4.2 1.9 4.2 4.2z" />
				<path id="&lt;Path&gt;" class="s1" d="m749.7 1003c0 2.3-1.9 4.2-4.2 4.2c-2.3 0-4.2-1.9-4.2-4.2c0-2.3 1.9-4.2 4.2-4.2c2.3 0 4.2 1.9 4.2 4.2z" />
				<path id="&lt;Path&gt;" class="s1" d="m625.2 1007.5c0 2.3-1.9 4.2-4.2 4.2c-2.3 0-4.2-1.9-4.2-4.2c0-2.3 1.9-4.2 4.2-4.2c2.3 0 4.2 1.9 4.2 4.2z" />
				<path id="&lt;Path&gt;" class="s1" d="m516.2 1079.5c0 2.3-1.9 4.2-4.2 4.2c-2.3 0-4.2-1.9-4.2-4.2c0-2.3 1.9-4.2 4.2-4.2c2.3 0 4.2 1.9 4.2 4.2z" />
				<path id="&lt;Path&gt;" class="s1" d="m452.2 1061.5c0 2.3-1.9 4.2-4.2 4.2c-2.3 0-4.2-1.9-4.2-4.2c0-2.3 1.9-4.2 4.2-4.2c2.3 0 4.2 1.9 4.2 4.2z" />
				<path id="&lt;Path&gt;" class="s1" d="m521.2 1011c0 2.3-1.9 4.2-4.2 4.2c-2.3 0-4.2-1.9-4.2-4.2c0-2.3 1.9-4.2 4.2-4.2c2.3 0 4.2 1.9 4.2 4.2z" />
				<path id="&lt;Path&gt;" class="s1" d="m312.7 949c0 2.3-1.9 4.2-4.2 4.2c-2.3 0-4.2-1.9-4.2-4.2c0-2.3 1.9-4.2 4.2-4.2c2.3 0 4.2 1.9 4.2 4.2z" />
				<path id="&lt;Path&gt;" class="s1" d="m296.2 941c0 2.3-1.9 4.2-4.2 4.2c-2.3 0-4.2-1.9-4.2-4.2c0-2.3 1.9-4.2 4.2-4.2c2.3 0 4.2 1.9 4.2 4.2z" />
				<path id="&lt;Path&gt;" class="s1" d="m284.2 904.5c0 2.3-1.9 4.2-4.2 4.2c-2.3 0-4.2-1.9-4.2-4.2c0-2.3 1.9-4.2 4.2-4.2c2.3 0 4.2 1.9 4.2 4.2z" />
				<path id="&lt;Path&gt;" class="s1" d="m271.7 867.5c0 2.3-1.9 4.2-4.2 4.2c-2.3 0-4.2-1.9-4.2-4.2c0-2.3 1.9-4.2 4.2-4.2c2.3 0 4.2 1.9 4.2 4.2z" />
				<path id="&lt;Path&gt;" class="s1" d="m242.7 778.5c0 2.3-1.9 4.2-4.2 4.2c-2.3 0-4.2-1.9-4.2-4.2c0-2.3 1.9-4.2 4.2-4.2c2.3 0 4.2 1.9 4.2 4.2z" />
				<path id="&lt;Path&gt;" class="s1" d="m235.2 754c0 2.3-1.9 4.2-4.2 4.2c-2.3 0-4.2-1.9-4.2-4.2c0-2.3 1.9-4.2 4.2-4.2c2.3 0 4.2 1.9 4.2 4.2z" />
				<path id="&lt;Path&gt;" class="s1" d="m406.7 897.5c0 2.3-1.9 4.2-4.2 4.2c-2.3 0-4.2-1.9-4.2-4.2c0-2.3 1.9-4.2 4.2-4.2c2.3 0 4.2 1.9 4.2 4.2z" />
				<path id="&lt;Path&gt;" class="s1" d="m326.7 721c0 2.3-1.9 4.2-4.2 4.2c-2.3 0-4.2-1.9-4.2-4.2c0-2.3 1.9-4.2 4.2-4.2c2.3 0 4.2 1.9 4.2 4.2z" />
				<path id="&lt;Path&gt;" class="s1" d="m217.7 699c0 2.3-1.9 4.2-4.2 4.2c-2.3 0-4.2-1.9-4.2-4.2c0-2.3 1.9-4.2 4.2-4.2c2.3 0 4.2 1.9 4.2 4.2z" />
				<path id="&lt;Path&gt;" class="s1" d="m255.1 499.6c0 2.3-1.8 4.2-4.2 4.2c-2.3 0-4.2-1.9-4.2-4.2c0-2.3 1.9-4.2 4.2-4.2c2.4 0 4.2 1.9 4.2 4.2z" />
				<path id="&lt;Path&gt;" class="s1" d="m343.2 372c0 2.3-1.9 4.2-4.2 4.2c-2.3 0-4.2-1.9-4.2-4.2c0-2.3 1.9-4.2 4.2-4.2c2.3 0 4.2 1.9 4.2 4.2z" />
				<path id="&lt;Path&gt;" class="s1" d="m258.7 449c0 2.3-1.9 4.2-4.2 4.2c-2.3 0-4.2-1.9-4.2-4.2c0-2.3 1.9-4.2 4.2-4.2c2.3 0 4.2 1.9 4.2 4.2z" />
				<path id="&lt;Path&gt;" class="s1" d="m380.7 337.5c0 2.3-1.9 4.2-4.2 4.2c-2.3 0-4.2-1.9-4.2-4.2c0-2.3 1.9-4.2 4.2-4.2c2.3 0 4.2 1.9 4.2 4.2z" />
				<path id="&lt;Path&gt;" class="s1" d="m308.7 404c0 2.3-1.9 4.2-4.2 4.2c-2.3 0-4.2-1.9-4.2-4.2c0-2.3 1.9-4.2 4.2-4.2c2.3 0 4.2 1.9 4.2 4.2z" />
				<path id="&lt;Path&gt;" class="s1" d="m534.7 265.2c0 2.3-1.9 4.2-4.2 4.2c-2.3 0-4.2-1.9-4.2-4.2c0-2.3 1.9-4.2 4.2-4.2c2.3 0 4.2 1.9 4.2 4.2z" />
				<path id="&lt;Path&gt;" class="s1" d="m549.7 232.5c0 2.3-1.9 4.2-4.2 4.2c-2.3 0-4.2-1.9-4.2-4.2c0-2.3 1.9-4.2 4.2-4.2c2.3 0 4.2 1.9 4.2 4.2z" />
				<path id="&lt;Path&gt;" class="s1" d="m483.2 244.5c0 2.3-1.9 4.2-4.2 4.2c-2.3 0-4.2-1.9-4.2-4.2c0-2.3 1.9-4.2 4.2-4.2c2.3 0 4.2 1.9 4.2 4.2z" />
				<path id="&lt;Path&gt;" class="s1" d="m460.2 265.5c0 2.3-1.9 4.2-4.2 4.2c-2.3 0-4.2-1.9-4.2-4.2c0-2.3 1.9-4.2 4.2-4.2c2.3 0 4.2 1.9 4.2 4.2z" />
				<path id="&lt;Path&gt;" class="s1" d="m496.2 232c0 2.3-1.9 4.2-4.2 4.2c-2.3 0-4.2-1.9-4.2-4.2c0-2.3 1.9-4.2 4.2-4.2c2.3 0 4.2 1.9 4.2 4.2z" />
				<path id="&lt;Path&gt;" class="s1" d="m678.7 233c0 2.3-1.9 4.2-4.2 4.2c-2.3 0-4.2-1.9-4.2-4.2c0-2.3 1.9-4.2 4.2-4.2c2.3 0 4.2 1.9 4.2 4.2z" />
				<path id="&lt;Path&gt;" class="s1" d="m588.2 434c0 2.3-1.9 4.2-4.2 4.2c-2.3 0-4.2-1.9-4.2-4.2c0-2.3 1.9-4.2 4.2-4.2c2.3 0 4.2 1.9 4.2 4.2z" />
				<path id="&lt;Path&gt;" class="s1" d="m536.7 466c0 2.3-1.9 4.2-4.2 4.2c-2.3 0-4.2-1.9-4.2-4.2c0-2.3 1.9-4.2 4.2-4.2c2.3 0 4.2 1.9 4.2 4.2z" />
				<path id="&lt;Path&gt;" class="s1" d="m706.2 468.5c0 2.3-1.9 4.2-4.2 4.2c-2.3 0-4.2-1.9-4.2-4.2c0-2.3 1.9-4.2 4.2-4.2c2.3 0 4.2 1.9 4.2 4.2z" />
				<path id="&lt;Path&gt;" class="s1" d="m787.2 211c0 2.3-1.9 4.2-4.2 4.2c-2.3 0-4.2-1.9-4.2-4.2c0-2.3 1.9-4.2 4.2-4.2c2.3 0 4.2 1.9 4.2 4.2z" />
				<path id="&lt;Path&gt;" class="s1" d="m926 243.2c0 4-3.2 7.3-7.2 7.3c-4 0-7.3-3.3-7.3-7.3c0-4 3.3-7.3 7.3-7.3c4 0 7.2 3.3 7.2 7.3z" />
				<path id="&lt;Path&gt;" class="s1" d="m658.3 179.7c0 4-3.2 7.2-7.2 7.2c-4.1 0-7.3-3.2-7.3-7.2c0-4 3.2-7.3 7.3-7.3c4 0 7.2 3.3 7.2 7.3z" />
				<path id="&lt;Path&gt;" class="s1" d="m777.9 234c0 4-3.2 7.3-7.2 7.3c-4 0-7.3-3.3-7.3-7.3c0-4 3.3-7.3 7.3-7.3c4 0 7.2 3.3 7.2 7.3z" />
				<path id="&lt;Path&gt;" class="s1" d="m929.8 243.2c0 6.1-4.9 11-11 11c-6.1 0-11-4.9-11-11c0-6.1 4.9-11 11-11c6.1 0 11 4.9 11 11z" />
				<path id="&lt;Path&gt;" class="s1" d="m731.3 346.4c0 4-3.3 7.3-7.3 7.3c-4 0-7.3-3.3-7.3-7.3c0-4 3.3-7.3 7.3-7.3c4 0 7.3 3.3 7.3 7.3z" />
				<path id="&lt;Path&gt;" class="s1" d="m950.1 535.6c0 14-11.3 25.3-25.3 25.3c-14 0-25.3-11.3-25.3-25.3c0-14 11.3-25.3 25.3-25.3c14 0 25.3 11.3 25.3 25.3z" />
				<path id="&lt;Path&gt;" class="s1" d="m476.8 399c0 4-3.3 7.3-7.3 7.3c-4 0-7.3-3.3-7.3-7.3c0-4 3.3-7.3 7.3-7.3c4 0 7.3 3.3 7.3 7.3z" />
				<path id="&lt;Path&gt;" class="s1" d="m682.8 618c0 4-3.3 7.3-7.3 7.3c-4 0-7.3-3.3-7.3-7.3c0-4 3.3-7.3 7.3-7.3c4 0 7.3 3.3 7.3 7.3z" />
				<path id="&lt;Path&gt;" class="s1" d="m731.3 346.4c0 4-3.3 7.3-7.3 7.3c-4 0-7.3-3.3-7.3-7.3c0-4 3.3-7.3 7.3-7.3c4 0 7.3 3.3 7.3 7.3z" />
				<path id="&lt;Path&gt;" class="s1" d="m421.8 539.5c0 4-3.3 7.3-7.3 7.3c-4 0-7.3-3.3-7.3-7.3c0-4 3.3-7.3 7.3-7.3c4 0 7.3 3.3 7.3 7.3z" />
				<path id="&lt;Path&gt;" class="s1" d="m504.6 656.7c0 4-3.3 7.2-7.3 7.2c-4 0-7.2-3.2-7.2-7.2c0-4 3.2-7.3 7.2-7.3c4 0 7.3 3.3 7.3 7.3z" />
				<path id="&lt;Path&gt;" class="s1" d="m695 618c0 10.8-8.7 19.5-19.5 19.5c-10.8 0-19.5-8.7-19.5-19.5c0-10.8 8.7-19.5 19.5-19.5c10.8 0 19.5 8.7 19.5 19.5z" />
				<path id="&lt;Path&gt;" class="s1" d="m421.8 539.5c0 4-3.3 7.3-7.3 7.3c-4 0-7.3-3.3-7.3-7.3c0-4 3.3-7.3 7.3-7.3c4 0 7.3 3.3 7.3 7.3z" />
				<path id="&lt;Path&gt;" class="s1" d="m402.3 801.5c0 4-3.3 7.3-7.3 7.3c-4 0-7.3-3.3-7.3-7.3c0-4 3.3-7.3 7.3-7.3c4 0 7.3 3.3 7.3 7.3z" />
				<path id="&lt;Path&gt;" class="s1" d="m507.3 656.7c0 5.5-4.5 9.9-10 9.9c-5.5 0-9.9-4.4-9.9-9.9c0-5.5 4.4-10 9.9-10c5.5 0 10 4.5 10 10z" />
				<path id="&lt;Path&gt;" class="s1" d="m194.7 770.6c0 4-3.3 7.3-7.3 7.3c-4 0-7.2-3.3-7.2-7.3c0-4 3.2-7.2 7.2-7.2c4 0 7.3 3.2 7.3 7.2z" />
				<path id="&lt;Path&gt;" class="s1" d="m417 801.5c0 12.2-9.8 22-22 22c-12.2 0-22-9.8-22-22c0-12.2 9.8-22 22-22c12.2 0 22 9.8 22 22z" />
				<path id="&lt;Path&gt;" class="s1" d="m245.9 628c0 4-3.2 7.3-7.2 7.3c-4 0-7.3-3.3-7.3-7.3c0-4 3.3-7.3 7.3-7.3c4 0 7.2 3.3 7.2 7.3z" />
				<path id="&lt;Path&gt;" class="s1" d="m190.5 610.5c0 4-3.2 7.2-7.2 7.2c-4.1 0-7.3-3.2-7.3-7.2c0-4.1 3.2-7.3 7.3-7.3c4 0 7.2 3.2 7.2 7.3z" />
				<path id="&lt;Path&gt;" class="s1" d="m194.7 770.6c0 4-3.3 7.3-7.3 7.3c-4 0-7.2-3.3-7.2-7.3c0-4 3.2-7.2 7.2-7.2c4 0 7.3 3.2 7.3 7.2z" />
				<path id="&lt;Path&gt;" class="s1" d="m245.9 628c0 4-3.2 7.3-7.2 7.3c-4 0-7.3-3.3-7.3-7.3c0-4 3.3-7.3 7.3-7.3c4 0 7.2 3.3 7.2 7.3z" />
				<path id="&lt;Path&gt;" class="s1" d="m421.8 539.5c0 4-3.3 7.3-7.3 7.3c-4 0-7.3-3.3-7.3-7.3c0-4 3.3-7.3 7.3-7.3c4 0 7.3 3.3 7.3 7.3z" />
				<path id="&lt;Path&gt;" class="s1" d="m218.1 489.2c0 4-3.2 7.3-7.2 7.3c-4 0-7.3-3.3-7.3-7.3c0-4 3.3-7.2 7.3-7.2c4 0 7.2 3.2 7.2 7.2z" />
				<path id="&lt;Path&gt;" class="s1" d="m245.9 628c0 4-3.2 7.3-7.2 7.3c-4 0-7.3-3.3-7.3-7.3c0-4 3.3-7.3 7.3-7.3c4 0 7.2 3.3 7.2 7.3z" />
				<path id="&lt;Path&gt;" class="s1" d="m218.1 489.2c0 4-3.2 7.3-7.2 7.3c-4 0-7.3-3.3-7.3-7.3c0-4 3.3-7.2 7.3-7.2c4 0 7.2 3.2 7.2 7.2z" />
				<path id="&lt;Path&gt;" class="s1" d="m304.6 422.7c0 4-3.3 7.2-7.3 7.2c-4 0-7.2-3.2-7.2-7.2c0-4 3.2-7.3 7.2-7.3c4 0 7.3 3.3 7.3 7.3z" />
				<path id="&lt;Path&gt;" class="s1" d="m264.2 405.7c0 3.2-2.5 5.8-5.7 5.8c-3.2 0-5.8-2.6-5.8-5.8c0-3.1 2.6-5.7 5.8-5.7c3.2 0 5.7 2.6 5.7 5.7z" />
				<path id="&lt;Path&gt;" class="s1" d="m431 539.5c0 9.1-7.4 16.5-16.5 16.5c-9.1 0-16.5-7.4-16.5-16.5c0-9.1 7.4-16.5 16.5-16.5c9.1 0 16.5 7.4 16.5 16.5z" />
				<path id="&lt;Path&gt;" class="s1" d="m476.8 399c0 4-3.3 7.3-7.3 7.3c-4 0-7.3-3.3-7.3-7.3c0-4 3.3-7.3 7.3-7.3c4 0 7.3 3.3 7.3 7.3z" />
				<path id="&lt;Path&gt;" class="s1" d="m731.3 346.4c0 4-3.3 7.3-7.3 7.3c-4 0-7.3-3.3-7.3-7.3c0-4 3.3-7.3 7.3-7.3c4 0 7.3 3.3 7.3 7.3z" />
				<path id="&lt;Path&gt;" class="s1" d="m780.6 234c0 5.5-4.4 9.9-9.9 9.9c-5.5 0-10-4.4-10-9.9c0-5.5 4.5-9.9 10-9.9c5.5 0 9.9 4.4 9.9 9.9z" />
				<path id="&lt;Path&gt;" class="s1" d="m459.3 232.3c0 4-3.2 7.2-7.3 7.2c-4 0-7.2-3.2-7.2-7.2c0-4.1 3.2-7.3 7.2-7.3c4.1 0 7.3 3.2 7.3 7.3z" />
				<path id="&lt;Path&gt;" class="s1" d="m476.8 399c0 4-3.3 7.3-7.3 7.3c-4 0-7.3-3.3-7.3-7.3c0-4 3.3-7.3 7.3-7.3c4 0 7.3 3.3 7.3 7.3z" />
				<path id="&lt;Path&gt;" class="s1" d="m343.1 311.1c0 2.8-2.2 5-5 5c-2.7 0-5-2.2-5-5c0-2.7 2.3-4.9 5-4.9c2.8 0 5 2.2 5 4.9z" />
				<path id="&lt;Path&gt;" class="s1" d="m459.3 232.3c0 4-3.2 7.2-7.3 7.2c-4 0-7.2-3.2-7.2-7.2c0-4.1 3.2-7.3 7.2-7.3c4.1 0 7.3 3.2 7.3 7.3z" />
				<path id="&lt;Path&gt;" class="s1" d="m476.8 399c0 4-3.3 7.3-7.3 7.3c-4 0-7.3-3.3-7.3-7.3c0-4 3.3-7.3 7.3-7.3c4 0 7.3 3.3 7.3 7.3z" />
				<path id="&lt;Path&gt;" class="s1" d="m571.5 191.4c0 4-3.2 7.3-7.2 7.3c-4 0-7.3-3.3-7.3-7.3c0-4 3.3-7.2 7.3-7.2c4 0 7.2 3.2 7.2 7.2z" />
				<path id="&lt;Path&gt;" class="s1" d="m737.2 346.4c0 7.3-5.9 13.2-13.2 13.2c-7.3 0-13.2-5.9-13.2-13.2c0-7.3 5.9-13.2 13.2-13.2c7.3 0 13.2 5.9 13.2 13.2z" />
				<path id="&lt;Path&gt;" class="s1" d="m658.3 179.7c0 4-3.2 7.2-7.2 7.2c-4.1 0-7.3-3.2-7.3-7.2c0-4 3.2-7.3 7.3-7.3c4 0 7.2 3.3 7.2 7.3z" />
				<path id="&lt;Path&gt;" class="s1" d="m462.5 232.3c0 5.7-4.7 10.4-10.5 10.4c-5.7 0-10.4-4.7-10.4-10.4c0-5.8 4.7-10.5 10.4-10.5c5.8 0 10.5 4.7 10.5 10.5z" />
			</g>
		</g>
	</g>
</svg>