<svg xmlns="http://www.w3.org/2000/svg" width="375" viewBox="0 0 375 375" height="375" version="1.0"><path fill="#FFF" d="M-37.5 -37.5H412.5V412.5H-37.5z"/><path fill="#FFF" d="M-37.5 -37.5H412.5V412.5H-37.5z"/><path fill="#FFF" d="M-37.5 -37.5H412.5V412.5H-37.5z"/><path fill="#A6A6A6" d="M 102.507812 202.957031 L 149.007812 202.957031 L 149.007812 306.445312 L 102.507812 306.445312 L 102.507812 202.957031"/><path fill="#D9D9D9" d="M 37.5 159.855469 L 84 159.855469 L 84 306.089844 L 37.5 306.089844 L 37.5 159.855469"/><path fill="#737373" d="M 164.117188 99.523438 L 210.617188 99.523438 L 210.617188 306.484375 L 164.117188 306.484375 L 164.117188 99.523438"/><path d="M 290.734375 37.523438 L 337.234375 37.523438 L 337.234375 305.976562 L 290.734375 305.976562 L 290.734375 37.523438"/><path fill="#545454" d="M 230.160156 130.765625 L 276.660156 130.765625 L 276.660156 306.238281 L 230.160156 306.238281 L 230.160156 130.765625"/></svg>