<svg xmlns="http://www.w3.org/2000/svg" width="375" viewBox="0 0 375 375" height="375" version="1.0"><defs><clipPath id="a"><path d="M 136 86 L 188 86 L 188 152 L 136 152 Z M 136 86"/></clipPath><clipPath id="b"><path d="M 188.828125 87.007812 L 148.808594 155.699219 L 129.367188 144.375 L 169.386719 75.683594 Z M 188.828125 87.007812"/></clipPath><clipPath id="c"><path d="M 188.828125 87.007812 L 148.808594 155.699219 L 129.367188 144.375 L 169.386719 75.683594 Z M 188.828125 87.007812"/></clipPath><clipPath id="d"><path d="M 173 92 L 174 92 L 174 93 L 173 93 Z M 173 92"/></clipPath><clipPath id="e"><path d="M 188.828125 87.007812 L 148.808594 155.699219 L 129.367188 144.375 L 169.386719 75.683594 Z M 188.828125 87.007812"/></clipPath><clipPath id="f"><path d="M 188.828125 87.007812 L 148.808594 155.699219 L 129.367188 144.375 L 169.386719 75.683594 Z M 188.828125 87.007812"/></clipPath><clipPath id="g"><path d="M 182 86 L 236 86 L 236 154 L 182 154 Z M 182 86"/></clipPath><clipPath id="h"><path d="M 201.648438 75.695312 L 242.730469 146.371094 L 222.632812 158.058594 L 181.546875 87.378906 Z M 201.648438 75.695312"/></clipPath><clipPath id="i"><path d="M 181.679688 87.304688 L 222.761719 157.980469 L 242.863281 146.296875 L 201.78125 75.617188 Z M 181.679688 87.304688"/></clipPath><clipPath id="j"><path d="M 197 92 L 198 92 L 198 93 L 197 93 Z M 197 92"/></clipPath><clipPath id="k"><path d="M 201.648438 75.695312 L 242.730469 146.371094 L 222.632812 158.058594 L 181.546875 87.378906 Z M 201.648438 75.695312"/></clipPath><clipPath id="l"><path d="M 181.679688 87.304688 L 222.761719 157.980469 L 242.863281 146.296875 L 201.78125 75.617188 Z M 181.679688 87.304688"/></clipPath><clipPath id="m"><path d="M 136 205 L 188 205 L 188 271 L 136 271 Z M 136 205"/></clipPath><clipPath id="n"><path d="M 155.167969 195.042969 L 195.121094 263.777344 L 175.667969 275.082031 L 135.71875 206.351562 Z M 155.167969 195.042969"/></clipPath><clipPath id="o"><path d="M 135.738281 206.339844 L 175.6875 275.070312 L 195.140625 263.765625 L 155.191406 195.03125 Z M 135.738281 206.339844"/></clipPath><clipPath id="p"><path d="M 150 211 L 151 211 L 151 212 L 150 212 Z M 150 211"/></clipPath><clipPath id="q"><path d="M 155.167969 195.042969 L 195.121094 263.777344 L 175.667969 275.082031 L 135.71875 206.351562 Z M 155.167969 195.042969"/></clipPath><clipPath id="r"><path d="M 135.738281 206.339844 L 175.6875 275.070312 L 195.140625 263.765625 L 155.191406 195.03125 Z M 135.738281 206.339844"/></clipPath><clipPath id="s"><path d="M 89 205 L 141 205 L 141 271 L 89 271 Z M 89 205"/></clipPath><clipPath id="t"><path d="M 141.898438 206.378906 L 101.875 275.070312 L 82.433594 263.742188 L 122.457031 195.054688 Z M 141.898438 206.378906"/></clipPath><clipPath id="u"><path d="M 141.898438 206.378906 L 101.875 275.070312 L 82.433594 263.742188 L 122.457031 195.054688 Z M 141.898438 206.378906"/></clipPath><clipPath id="v"><path d="M 126 211 L 127 211 L 127 212 L 126 212 Z M 126 211"/></clipPath><clipPath id="w"><path d="M 141.898438 206.378906 L 101.875 275.070312 L 82.433594 263.742188 L 122.457031 195.054688 Z M 141.898438 206.378906"/></clipPath><clipPath id="x"><path d="M 141.898438 206.378906 L 101.875 275.070312 L 82.433594 263.742188 L 122.457031 195.054688 Z M 141.898438 206.378906"/></clipPath></defs><path fill="#FFF" d="M-37.5 -37.5H412.5V412.5H-37.5z"/><path fill="#FFF" d="M-37.5 -37.5H412.5V412.5H-37.5z"/><path fill="#FFF" d="M-37.5 -37.5H412.5V412.5H-37.5z"/><path fill="#A6A6A6" d="M 118.519531 154.660156 L 165.019531 154.660156 L 165.019531 199.65625 L 118.519531 199.65625 L 118.519531 154.660156"/><path fill="#D9D9D9" d="M 71.753906 275.152344 L 118.253906 275.152344 L 118.253906 320.148438 L 71.753906 320.148438 L 71.753906 275.152344"/><path fill="#737373" d="M 165.453125 275.152344 L 211.953125 275.152344 L 211.953125 320.148438 L 165.453125 320.148438 L 165.453125 275.152344"/><path d="M 212.21875 154.660156 L 258.71875 154.660156 L 258.71875 199.65625 L 212.21875 199.65625 L 212.21875 154.660156"/><g clip-path="url(#a)"><g clip-path="url(#b)"><g clip-path="url(#c)"><path d="M 187.625 87.777344 C 187.597656 87.714844 187.546875 87.675781 187.476562 87.667969 C 187.398438 87.4375 187.703125 87.195312 187.445312 86.972656 C 187.253906 86.242188 186.679688 86.140625 186.054688 86.144531 C 184.300781 86.15625 182.582031 86.453125 180.882812 86.859375 C 174.800781 88.304688 169.304688 90.957031 164.222656 94.613281 C 155.351562 100.988281 149.632812 109.574219 146.199219 119.792969 C 144.609375 124.527344 143.875 129.453125 143.371094 134.414062 C 143.074219 137.332031 142.953125 140.253906 142.761719 143.179688 C 142.800781 143.285156 142.84375 143.390625 142.882812 143.5 C 142.820312 143.613281 142.785156 143.761719 142.691406 143.828125 C 142.691406 143.828125 142.691406 143.828125 142.6875 143.832031 C 142.613281 143.882812 142.539062 143.773438 142.546875 143.667969 C 141.910156 142.710938 141.5 141.648438 141.144531 140.566406 C 140.898438 139.824219 140.609375 139.125 140.109375 138.519531 C 139.597656 136.917969 138.460938 136.214844 136.953125 136.492188 C 136.421875 139.796875 137.609375 142.691406 139.054688 145.535156 C 139.589844 146.59375 140.054688 147.6875 140.535156 148.769531 C 141.683594 151.367188 141.664062 150.925781 143.960938 151.199219 C 144.472656 151.257812 144.992188 151.199219 145.5 151.089844 C 145.6875 151.046875 145.855469 150.992188 145.960938 150.816406 C 146.546875 150.855469 146.800781 150.429688 147.03125 150.003906 C 147.707031 148.738281 148.363281 147.46875 149.03125 146.195312 C 149.324219 146.019531 149.4375 145.726562 149.539062 145.421875 C 149.839844 145.257812 149.949219 144.957031 150.070312 144.667969 C 150.304688 144.585938 150.371094 144.351562 150.503906 144.179688 C 152.324219 141.875 154.375 139.804688 156.777344 138.089844 C 156.960938 137.960938 157.128906 137.816406 157.304688 137.679688 C 157.511719 137.519531 157.75 137.339844 157.648438 137.054688 C 157.574219 136.839844 157.28125 136.714844 157.089844 136.753906 C 156.246094 136.925781 155.4375 136.550781 154.609375 136.644531 C 154.242188 136.6875 153.917969 136.875 153.597656 137.070312 C 151.097656 138.574219 148.9375 140.480469 146.964844 142.609375 C 146.789062 142.800781 146.640625 143.023438 146.429688 143.171875 C 146.1875 143.34375 146.027344 143.160156 145.921875 142.941406 C 146.097656 142.703125 146.101562 142.464844 145.949219 142.21875 C 146.070312 141.972656 146.167969 141.722656 145.988281 141.457031 C 146.050781 141.417969 146.054688 141.367188 146.003906 141.3125 C 146.125 141.082031 146.203125 140.847656 146.050781 140.59375 C 146.097656 140.417969 146.171875 140.246094 146.1875 140.066406 C 146.382812 138.082031 146.542969 136.097656 146.757812 134.121094 C 146.949219 132.320312 147.199219 130.535156 147.429688 128.742188 C 147.546875 128.277344 147.679688 127.816406 147.78125 127.347656 C 148.765625 122.808594 150.28125 118.453125 152.445312 114.335938 C 153.222656 112.867188 154.039062 111.421875 154.839844 109.96875 C 155.148438 109.785156 155.25 109.46875 155.359375 109.15625 C 155.664062 108.988281 155.765625 108.6875 155.871094 108.390625 C 156.171875 108.25 156.25 107.957031 156.371094 107.691406 C 156.578125 107.617188 156.664062 107.453125 156.699219 107.25 C 156.773438 107.21875 156.808594 107.164062 156.804688 107.085938 C 157.03125 107 157.105469 106.769531 157.242188 106.605469 C 157.925781 105.792969 158.457031 104.859375 159.242188 104.128906 C 159.214844 104.003906 159.328125 103.722656 159.007812 103.964844 C 158.789062 104.125 158.71875 104.097656 158.699219 104.007812 C 158.683594 103.929688 158.707031 103.804688 158.710938 103.707031 C 160.949219 101.203125 163.460938 99 166.121094 96.957031 C 166.386719 96.792969 166.652344 96.625 166.914062 96.457031 C 168.496094 95.460938 170.074219 94.464844 171.652344 93.472656 C 171.730469 93.476562 171.792969 93.460938 171.847656 93.425781 C 171.882812 93.398438 171.914062 93.363281 171.9375 93.320312 C 172.0625 93.332031 172.15625 93.28125 172.214844 93.171875 C 172.34375 93.1875 172.433594 93.136719 172.492188 93.023438 C 172.621094 93.042969 172.710938 92.992188 172.773438 92.878906 C 172.902344 92.898438 172.996094 92.851562 173.054688 92.734375 C 173.183594 92.757812 173.277344 92.710938 173.332031 92.59375 L 173.335938 92.59375 C 173.460938 92.617188 173.558594 92.570312 173.613281 92.457031 L 173.621094 92.453125 C 173.714844 92.417969 173.808594 92.371094 173.898438 92.324219 L 173.90625 92.320312 C 174.03125 92.34375 174.125 92.300781 174.183594 92.1875 L 174.195312 92.183594 C 174.320312 92.207031 174.410156 92.167969 174.472656 92.050781 L 174.480469 92.046875 C 174.480469 92.046875 174.484375 92.046875 174.484375 92.046875 C 174.484375 92.046875 174.480469 92.046875 174.480469 92.046875 C 174.609375 92.078125 174.703125 92.03125 174.761719 91.917969 L 174.765625 91.914062 C 174.894531 91.941406 174.988281 91.898438 175.046875 91.785156 L 175.050781 91.785156 C 175.179688 91.808594 175.277344 91.769531 175.339844 91.652344 C 176.246094 91.3125 177.148438 90.96875 178.058594 90.625 C 178.472656 90.300781 178.988281 90.207031 179.472656 90.050781 C 179.515625 90.09375 179.542969 90.140625 179.5625 90.1875 C 179.59375 90.261719 179.597656 90.34375 179.578125 90.429688 C 179.953125 90.351562 180.339844 90.300781 180.65625 90.054688 C 180.746094 89.96875 180.84375 89.898438 180.96875 89.875 C 180.867188 89.933594 180.761719 89.992188 180.65625 90.054688 C 180.785156 90.050781 180.902344 90.035156 180.953125 89.90625 C 181.136719 89.972656 181.296875 89.925781 181.449219 89.808594 C 181.566406 89.851562 181.664062 89.835938 181.734375 89.722656 C 181.863281 89.738281 181.980469 89.722656 182.0625 89.609375 C 182.125 89.625 182.179688 89.621094 182.234375 89.582031 C 182.617188 89.566406 182.976562 89.476562 183.316406 89.300781 C 183.585938 89.277344 183.859375 89.261719 184.089844 89.101562 C 184.269531 89.148438 184.421875 89.074219 184.578125 89.011719 C 185.640625 88.921875 186.679688 88.636719 187.808594 88.753906 C 187.671875 88.378906 187.933594 88.035156 187.625 87.777344 Z M 145.796875 141.238281 C 145.796875 141.234375 145.796875 141.234375 145.800781 141.230469 C 145.796875 141.230469 145.796875 141.234375 145.796875 141.234375 C 145.796875 141.230469 145.800781 141.230469 145.800781 141.230469 C 145.800781 141.234375 145.804688 141.234375 145.808594 141.234375 C 145.804688 141.238281 145.800781 141.238281 145.796875 141.238281 Z M 174.453125 91.382812 C 174.429688 91.390625 174.402344 91.394531 174.378906 91.402344 C 174.386719 91.398438 174.390625 91.394531 174.394531 91.390625 C 174.414062 91.382812 174.433594 91.371094 174.457031 91.363281 C 174.453125 91.367188 174.453125 91.375 174.453125 91.382812 Z M 171.660156 93.457031 C 171.660156 93.453125 171.660156 93.453125 171.65625 93.449219 C 171.65625 93.441406 171.648438 93.433594 171.648438 93.425781 L 171.640625 93.398438 L 171.660156 93.453125 C 171.664062 93.453125 171.664062 93.449219 171.667969 93.453125 C 171.664062 93.449219 171.664062 93.453125 171.660156 93.457031 Z M 174.472656 91.269531 C 174.464844 91.300781 174.460938 91.332031 174.457031 91.359375 C 174.4375 91.367188 174.417969 91.375 174.398438 91.386719 C 174.4375 91.359375 174.464844 91.320312 174.472656 91.269531 Z M 174.265625 91.441406 C 174.242188 91.453125 174.222656 91.464844 174.199219 91.472656 C 174.195312 91.46875 174.195312 91.472656 174.191406 91.46875 C 174.21875 91.460938 174.242188 91.453125 174.265625 91.441406 Z M 185.667969 87.289062 C 185.667969 87.285156 185.671875 87.285156 185.675781 87.28125 C 185.675781 87.28125 185.679688 87.28125 185.679688 87.28125 C 185.679688 87.28125 185.683594 87.28125 185.6875 87.28125 C 185.683594 87.285156 185.675781 87.285156 185.667969 87.289062 Z M 185.195312 87.328125 C 185.191406 87.328125 185.183594 87.324219 185.179688 87.328125 C 185.183594 87.332031 185.191406 87.328125 185.195312 87.328125 Z M 181.082031 89.71875 C 181.085938 89.695312 181.085938 89.671875 181.082031 89.644531 C 181.09375 89.652344 181.109375 89.65625 181.125 89.660156 C 181.109375 89.679688 181.097656 89.699219 181.082031 89.71875 Z M 181.910156 89.59375 C 181.949219 89.574219 181.992188 89.574219 182.035156 89.582031 C 182.035156 89.582031 182.035156 89.582031 182.035156 89.585938 C 181.992188 89.578125 181.949219 89.578125 181.910156 89.59375 Z M 181.910156 89.59375"/></g></g></g><g clip-path="url(#d)"><g clip-path="url(#e)"><g clip-path="url(#f)"><path d="M 173.910156 92.3125 C 173.816406 92.355469 173.726562 92.402344 173.632812 92.441406 C 173.761719 92.46875 173.851562 92.421875 173.910156 92.3125 Z M 173.910156 92.3125"/></g></g></g><g clip-path="url(#g)"><g clip-path="url(#h)"><g clip-path="url(#i)"><path d="M 182.921875 88.09375 C 182.953125 88.027344 183.003906 87.992188 183.074219 87.980469 C 183.15625 87.746094 182.839844 87.492188 183.109375 87.265625 C 183.308594 86.511719 183.902344 86.40625 184.546875 86.410156 C 186.359375 86.421875 188.128906 86.726562 189.882812 87.140625 C 196.15625 88.625 201.820312 91.347656 207.050781 95.101562 C 216.1875 101.65625 222.058594 110.492188 225.570312 121.003906 C 227.195312 125.878906 227.9375 130.949219 228.441406 136.058594 C 228.738281 139.058594 228.855469 142.070312 229.042969 145.078125 C 229 145.191406 228.957031 145.300781 228.917969 145.410156 C 228.976562 145.527344 229.011719 145.679688 229.109375 145.75 C 229.109375 145.75 229.109375 145.75 229.113281 145.75 C 229.191406 145.804688 229.269531 145.691406 229.261719 145.585938 C 229.921875 144.597656 230.347656 143.503906 230.71875 142.386719 C 230.972656 141.625 231.277344 140.902344 231.796875 140.28125 C 232.328125 138.632812 233.503906 137.90625 235.058594 138.191406 C 235.59375 141.59375 234.363281 144.574219 232.859375 147.503906 C 232.304688 148.59375 231.820312 149.71875 231.320312 150.835938 C 230.128906 153.507812 230.148438 153.054688 227.78125 153.335938 C 227.25 153.402344 226.714844 153.339844 226.1875 153.226562 C 225.996094 153.183594 225.820312 153.128906 225.714844 152.949219 C 225.109375 152.988281 224.847656 152.550781 224.613281 152.113281 C 223.921875 150.808594 223.246094 149.503906 222.5625 148.195312 C 222.257812 148.011719 222.144531 147.710938 222.039062 147.398438 C 221.730469 147.230469 221.617188 146.921875 221.492188 146.621094 C 221.253906 146.535156 221.183594 146.296875 221.046875 146.121094 C 219.175781 143.746094 217.066406 141.617188 214.59375 139.855469 C 214.40625 139.722656 214.230469 139.574219 214.050781 139.433594 C 213.835938 139.269531 213.589844 139.085938 213.695312 138.792969 C 213.773438 138.570312 214.078125 138.445312 214.273438 138.484375 C 215.144531 138.65625 215.980469 138.273438 216.835938 138.367188 C 217.214844 138.410156 217.546875 138.601562 217.878906 138.804688 C 220.453125 140.347656 222.675781 142.308594 224.703125 144.5 C 224.886719 144.695312 225.039062 144.925781 225.253906 145.074219 C 225.503906 145.253906 225.671875 145.066406 225.78125 144.839844 C 225.597656 144.59375 225.597656 144.347656 225.753906 144.09375 C 225.632812 143.839844 225.53125 143.585938 225.714844 143.3125 C 225.652344 143.269531 225.648438 143.21875 225.699219 143.164062 C 225.574219 142.925781 225.5 142.683594 225.65625 142.425781 C 225.605469 142.242188 225.53125 142.066406 225.515625 141.878906 C 225.320312 139.839844 225.164062 137.796875 224.949219 135.757812 C 224.753906 133.90625 224.5 132.066406 224.273438 130.222656 C 224.152344 129.742188 224.015625 129.269531 223.914062 128.789062 C 222.914062 124.113281 221.363281 119.632812 219.140625 115.398438 C 218.347656 113.886719 217.507812 112.398438 216.6875 110.902344 C 216.363281 110.714844 216.261719 110.390625 216.148438 110.066406 C 215.839844 109.894531 215.734375 109.585938 215.625 109.277344 C 215.316406 109.136719 215.238281 108.832031 215.113281 108.558594 C 214.898438 108.484375 214.8125 108.3125 214.773438 108.109375 C 214.699219 108.074219 214.660156 108.019531 214.664062 107.9375 C 214.429688 107.847656 214.359375 107.613281 214.21875 107.445312 C 213.515625 106.605469 212.96875 105.644531 212.160156 104.894531 C 212.191406 104.769531 212.074219 104.476562 212.40625 104.726562 C 212.628906 104.890625 212.699219 104.863281 212.722656 104.773438 C 212.738281 104.691406 212.714844 104.5625 212.707031 104.460938 C 210.410156 101.882812 207.820312 99.617188 205.082031 97.519531 C 204.8125 97.351562 204.539062 97.175781 204.265625 97.003906 C 202.640625 95.984375 201.011719 94.960938 199.386719 93.9375 C 199.308594 93.945312 199.242188 93.925781 199.1875 93.890625 C 199.148438 93.863281 199.121094 93.828125 199.09375 93.78125 C 198.964844 93.796875 198.867188 93.742188 198.808594 93.628906 C 198.675781 93.648438 198.582031 93.59375 198.523438 93.476562 C 198.390625 93.5 198.296875 93.445312 198.234375 93.328125 C 198.101562 93.347656 198.003906 93.300781 197.945312 93.179688 C 197.808594 93.207031 197.714844 93.15625 197.65625 93.035156 L 197.652344 93.035156 C 197.523438 93.0625 197.421875 93.015625 197.367188 92.898438 L 197.359375 92.894531 C 197.265625 92.855469 197.167969 92.808594 197.074219 92.757812 L 197.066406 92.753906 C 196.933594 92.78125 196.839844 92.738281 196.777344 92.617188 L 196.769531 92.613281 C 196.640625 92.640625 196.542969 92.597656 196.480469 92.480469 L 196.472656 92.476562 C 196.472656 92.476562 196.46875 92.472656 196.46875 92.472656 C 196.46875 92.472656 196.472656 92.476562 196.472656 92.476562 C 196.34375 92.503906 196.246094 92.460938 196.183594 92.339844 L 196.179688 92.339844 C 196.046875 92.367188 195.949219 92.324219 195.890625 92.203125 L 195.886719 92.203125 C 195.753906 92.230469 195.652344 92.1875 195.589844 92.070312 C 194.65625 91.71875 193.722656 91.367188 192.785156 91.015625 C 192.359375 90.679688 191.828125 90.585938 191.328125 90.425781 C 191.285156 90.46875 191.257812 90.515625 191.234375 90.566406 C 191.203125 90.644531 191.199219 90.726562 191.21875 90.816406 C 190.832031 90.734375 190.433594 90.683594 190.105469 90.429688 C 190.011719 90.34375 189.910156 90.273438 189.785156 90.246094 C 189.890625 90.304688 190 90.363281 190.105469 90.429688 C 189.976562 90.429688 189.851562 90.410156 189.800781 90.277344 C 189.609375 90.347656 189.445312 90.296875 189.289062 90.179688 C 189.167969 90.222656 189.066406 90.207031 188.992188 90.089844 C 188.859375 90.105469 188.742188 90.089844 188.65625 89.976562 C 188.59375 89.992188 188.535156 89.988281 188.476562 89.945312 C 188.082031 89.929688 187.710938 89.839844 187.363281 89.65625 C 187.085938 89.632812 186.804688 89.617188 186.5625 89.453125 C 186.382812 89.503906 186.222656 89.421875 186.0625 89.359375 C 184.964844 89.269531 183.894531 88.976562 182.726562 89.097656 C 182.871094 88.710938 182.601562 88.359375 182.921875 88.09375 Z M 225.914062 143.085938 C 225.914062 143.082031 225.914062 143.082031 225.914062 143.078125 C 225.914062 143.078125 225.917969 143.082031 225.917969 143.082031 C 225.914062 143.078125 225.910156 143.078125 225.910156 143.078125 C 225.910156 143.078125 225.914062 143.078125 225.914062 143.078125 C 225.910156 143.082031 225.90625 143.082031 225.902344 143.082031 C 225.910156 143.085938 225.910156 143.082031 225.914062 143.085938 Z M 196.503906 91.789062 C 196.53125 91.796875 196.554688 91.804688 196.578125 91.808594 C 196.574219 91.808594 196.570312 91.804688 196.5625 91.800781 C 196.542969 91.789062 196.523438 91.78125 196.5 91.773438 C 196.503906 91.773438 196.503906 91.78125 196.503906 91.789062 Z M 199.378906 93.921875 C 199.382812 93.917969 199.378906 93.917969 199.382812 93.914062 C 199.382812 93.90625 199.390625 93.898438 199.394531 93.890625 L 199.402344 93.863281 L 199.378906 93.917969 C 199.378906 93.917969 199.375 93.917969 199.375 93.917969 C 199.375 93.917969 199.378906 93.917969 199.378906 93.921875 Z M 196.484375 91.671875 C 196.492188 91.703125 196.496094 91.738281 196.5 91.765625 C 196.519531 91.773438 196.539062 91.785156 196.558594 91.792969 C 196.519531 91.769531 196.492188 91.726562 196.484375 91.671875 Z M 196.695312 91.851562 C 196.71875 91.863281 196.742188 91.871094 196.765625 91.882812 C 196.769531 91.878906 196.769531 91.882812 196.773438 91.878906 C 196.746094 91.871094 196.71875 91.863281 196.695312 91.851562 Z M 184.945312 87.585938 C 184.941406 87.585938 184.9375 87.582031 184.9375 87.582031 C 184.9375 87.582031 184.933594 87.582031 184.933594 87.582031 C 184.929688 87.582031 184.925781 87.582031 184.921875 87.582031 C 184.929688 87.585938 184.933594 87.585938 184.945312 87.585938 Z M 185.429688 87.628906 C 185.433594 87.628906 185.441406 87.625 185.445312 87.628906 C 185.441406 87.632812 185.433594 87.628906 185.429688 87.628906 Z M 189.667969 90.085938 C 189.664062 90.0625 189.664062 90.039062 189.667969 90.011719 C 189.652344 90.015625 189.640625 90.019531 189.625 90.027344 C 189.640625 90.046875 189.652344 90.066406 189.667969 90.085938 Z M 188.8125 89.957031 C 188.773438 89.9375 188.730469 89.9375 188.683594 89.945312 C 188.683594 89.945312 188.683594 89.945312 188.683594 89.949219 C 188.730469 89.941406 188.773438 89.941406 188.8125 89.957031 Z M 188.8125 89.957031"/></g></g></g><g clip-path="url(#j)"><g clip-path="url(#k)"><g clip-path="url(#l)"><path d="M 197.058594 92.746094 C 197.15625 92.789062 197.25 92.835938 197.347656 92.878906 C 197.214844 92.90625 197.121094 92.859375 197.058594 92.746094 Z M 197.058594 92.746094"/></g></g></g><g clip-path="url(#m)"><g clip-path="url(#n)"><g clip-path="url(#o)"><path d="M 136.941406 207.109375 C 136.96875 207.042969 137.019531 207.007812 137.089844 207 C 137.167969 206.769531 136.863281 206.523438 137.121094 206.300781 C 137.3125 205.570312 137.886719 205.472656 138.511719 205.476562 C 140.269531 205.492188 141.984375 205.789062 143.683594 206.195312 C 149.765625 207.648438 155.257812 210.308594 160.335938 213.964844 C 169.203125 220.351562 174.910156 228.945312 178.332031 239.164062 C 179.917969 243.902344 180.648438 248.828125 181.148438 253.789062 C 181.441406 256.707031 181.558594 259.632812 181.746094 262.554688 C 181.707031 262.664062 181.667969 262.769531 181.625 262.875 C 181.6875 262.992188 181.722656 263.136719 181.816406 263.207031 C 181.816406 263.207031 181.816406 263.207031 181.820312 263.207031 C 181.894531 263.257812 181.96875 263.152344 181.960938 263.046875 C 182.597656 262.085938 183.011719 261.027344 183.367188 259.945312 C 183.613281 259.203125 183.902344 258.503906 184.40625 257.898438 C 184.917969 256.300781 186.054688 255.59375 187.5625 255.875 C 188.089844 259.183594 186.902344 262.074219 185.453125 264.917969 C 184.914062 265.976562 184.449219 267.066406 183.96875 268.148438 C 182.816406 270.746094 182.835938 270.304688 180.542969 270.574219 C 180.027344 270.632812 179.507812 270.574219 179 270.460938 C 178.8125 270.421875 178.644531 270.367188 178.542969 270.191406 C 177.953125 270.226562 177.699219 269.800781 177.472656 269.375 C 176.796875 268.109375 176.140625 266.839844 175.476562 265.566406 C 175.183594 265.390625 175.070312 265.09375 174.96875 264.792969 C 174.667969 264.628906 174.558594 264.328125 174.4375 264.035156 C 174.203125 263.953125 174.136719 263.722656 174.003906 263.550781 C 172.1875 261.238281 170.136719 259.167969 167.734375 257.453125 C 167.554688 257.320312 167.386719 257.179688 167.210938 257.042969 C 167 256.878906 166.761719 256.699219 166.863281 256.414062 C 166.941406 256.203125 167.234375 256.078125 167.425781 256.117188 C 168.265625 256.289062 169.078125 255.914062 169.90625 256.007812 C 170.273438 256.050781 170.59375 256.238281 170.917969 256.4375 C 173.414062 257.941406 175.574219 259.851562 177.542969 261.984375 C 177.71875 262.171875 177.867188 262.394531 178.078125 262.542969 C 178.320312 262.714844 178.480469 262.535156 178.589844 262.3125 C 178.410156 262.078125 178.40625 261.835938 178.5625 261.59375 C 178.441406 261.34375 178.34375 261.09375 178.523438 260.832031 C 178.460938 260.789062 178.457031 260.742188 178.507812 260.6875 C 178.382812 260.457031 178.308594 260.21875 178.460938 259.96875 C 178.410156 259.792969 178.339844 259.621094 178.324219 259.441406 C 178.132812 257.457031 177.972656 255.472656 177.761719 253.492188 C 177.570312 251.695312 177.320312 249.90625 177.09375 248.113281 C 176.976562 247.648438 176.84375 247.1875 176.746094 246.722656 C 175.765625 242.175781 174.253906 237.820312 172.089844 233.703125 C 171.320312 232.234375 170.503906 230.789062 169.703125 229.332031 C 169.394531 229.148438 169.292969 228.832031 169.183594 228.519531 C 168.882812 228.351562 168.777344 228.050781 168.671875 227.753906 C 168.375 227.613281 168.296875 227.320312 168.175781 227.050781 C 167.96875 226.976562 167.882812 226.8125 167.84375 226.613281 C 167.769531 226.582031 167.734375 226.527344 167.742188 226.445312 C 167.511719 226.359375 167.441406 226.132812 167.304688 225.96875 C 166.625 225.152344 166.089844 224.21875 165.308594 223.488281 C 165.335938 223.367188 165.222656 223.082031 165.542969 223.324219 C 165.757812 223.484375 165.828125 223.460938 165.847656 223.371094 C 165.867188 223.292969 165.84375 223.164062 165.835938 223.066406 C 163.601562 220.558594 161.09375 218.355469 158.433594 216.3125 C 158.171875 216.144531 157.90625 215.976562 157.640625 215.808594 C 156.0625 214.8125 154.484375 213.816406 152.90625 212.816406 C 152.832031 212.824219 152.765625 212.808594 152.714844 212.769531 C 152.675781 212.746094 152.648438 212.710938 152.621094 212.667969 C 152.496094 212.679688 152.40625 212.628906 152.34375 212.519531 C 152.21875 212.535156 152.125 212.484375 152.066406 212.371094 C 151.941406 212.390625 151.847656 212.339844 151.789062 212.222656 C 151.660156 212.242188 151.5625 212.195312 151.507812 212.078125 C 151.378906 212.105469 151.285156 212.054688 151.226562 211.941406 L 151.222656 211.9375 C 151.097656 211.964844 151.003906 211.917969 150.945312 211.804688 L 150.941406 211.800781 C 150.847656 211.761719 150.753906 211.71875 150.664062 211.667969 L 150.652344 211.664062 C 150.527344 211.6875 150.4375 211.648438 150.375 211.53125 L 150.367188 211.527344 C 150.242188 211.550781 150.148438 211.511719 150.089844 211.394531 L 150.078125 211.390625 C 150.078125 211.390625 150.074219 211.390625 150.074219 211.390625 C 150.074219 211.390625 150.078125 211.390625 150.078125 211.390625 C 149.953125 211.421875 149.859375 211.375 149.800781 211.261719 L 149.792969 211.257812 C 149.667969 211.285156 149.574219 211.242188 149.515625 211.128906 L 149.511719 211.128906 C 149.382812 211.152344 149.285156 211.109375 149.222656 210.996094 C 148.316406 210.652344 147.414062 210.3125 146.507812 209.964844 C 146.089844 209.640625 145.578125 209.546875 145.09375 209.390625 C 145.050781 209.429688 145.019531 209.476562 145 209.527344 C 144.972656 209.601562 144.964844 209.679688 144.988281 209.769531 C 144.609375 209.691406 144.222656 209.636719 143.90625 209.390625 C 143.816406 209.308594 143.71875 209.238281 143.59375 209.210938 C 143.695312 209.269531 143.800781 209.328125 143.90625 209.390625 C 143.78125 209.390625 143.660156 209.375 143.609375 209.242188 C 143.425781 209.308594 143.265625 209.261719 143.117188 209.144531 C 143 209.191406 142.898438 209.171875 142.828125 209.0625 C 142.699219 209.074219 142.585938 209.058594 142.503906 208.949219 C 142.441406 208.964844 142.382812 208.957031 142.328125 208.917969 C 141.945312 208.902344 141.585938 208.8125 141.246094 208.636719 C 140.976562 208.613281 140.707031 208.597656 140.472656 208.4375 C 140.296875 208.484375 140.140625 208.40625 139.984375 208.34375 C 138.925781 208.253906 137.886719 207.96875 136.753906 208.085938 C 136.890625 207.710938 136.628906 207.363281 136.941406 207.109375 Z M 178.714844 260.609375 C 178.710938 260.609375 178.710938 260.609375 178.710938 260.605469 C 178.714844 260.605469 178.714844 260.605469 178.714844 260.605469 C 178.714844 260.605469 178.710938 260.601562 178.710938 260.601562 C 178.710938 260.601562 178.710938 260.605469 178.710938 260.605469 C 178.707031 260.609375 178.707031 260.609375 178.703125 260.609375 C 178.707031 260.613281 178.710938 260.609375 178.714844 260.609375 Z M 150.109375 210.726562 C 150.132812 210.734375 150.160156 210.738281 150.183594 210.746094 C 150.175781 210.742188 150.171875 210.738281 150.167969 210.734375 C 150.148438 210.726562 150.128906 210.71875 150.105469 210.710938 C 150.109375 210.710938 150.109375 210.71875 150.109375 210.726562 Z M 152.898438 212.800781 C 152.902344 212.800781 152.898438 212.796875 152.902344 212.796875 C 152.90625 212.789062 152.910156 212.78125 152.914062 212.773438 L 152.921875 212.746094 L 152.898438 212.796875 C 152.898438 212.800781 152.894531 212.796875 152.894531 212.800781 C 152.894531 212.796875 152.898438 212.800781 152.898438 212.800781 Z M 150.089844 210.613281 C 150.09375 210.644531 150.101562 210.675781 150.105469 210.703125 C 150.125 210.710938 150.144531 210.722656 150.164062 210.730469 C 150.125 210.707031 150.097656 210.664062 150.089844 210.613281 Z M 150.292969 210.785156 C 150.316406 210.796875 150.339844 210.808594 150.363281 210.816406 C 150.363281 210.8125 150.367188 210.816406 150.367188 210.816406 C 150.34375 210.804688 150.316406 210.796875 150.292969 210.785156 Z M 138.898438 206.621094 C 138.898438 206.617188 138.894531 206.617188 138.890625 206.613281 C 138.890625 206.613281 138.886719 206.613281 138.886719 206.613281 C 138.886719 206.613281 138.882812 206.613281 138.878906 206.617188 C 138.882812 206.617188 138.890625 206.617188 138.898438 206.621094 Z M 139.371094 206.664062 C 139.375 206.660156 139.378906 206.65625 139.386719 206.660156 C 139.382812 206.664062 139.375 206.660156 139.371094 206.664062 Z M 143.480469 209.054688 C 143.476562 209.035156 143.476562 209.011719 143.480469 208.984375 C 143.46875 208.988281 143.453125 208.992188 143.441406 209 C 143.453125 209.015625 143.464844 209.039062 143.480469 209.054688 Z M 142.652344 208.929688 C 142.617188 208.914062 142.574219 208.910156 142.527344 208.917969 C 142.527344 208.917969 142.527344 208.917969 142.527344 208.921875 C 142.574219 208.917969 142.613281 208.917969 142.652344 208.929688 Z M 142.652344 208.929688"/></g></g></g><g clip-path="url(#p)"><g clip-path="url(#q)"><g clip-path="url(#r)"><path d="M 150.648438 211.65625 C 150.742188 211.699219 150.835938 211.746094 150.925781 211.789062 C 150.800781 211.8125 150.707031 211.769531 150.648438 211.65625 Z M 150.648438 211.65625"/></g></g></g><path fill="#545454" d="M 165.453125 38.625 L 211.953125 38.625 L 211.953125 83.621094 L 165.453125 83.621094 L 165.453125 38.625"/><g clip-path="url(#s)"><g clip-path="url(#t)"><g clip-path="url(#u)"><path d="M 140.691406 207.148438 C 140.664062 207.085938 140.613281 207.046875 140.542969 207.039062 C 140.46875 206.808594 140.773438 206.566406 140.511719 206.34375 C 140.320312 205.609375 139.75 205.511719 139.121094 205.515625 C 137.367188 205.527344 135.652344 205.824219 133.953125 206.226562 C 127.867188 207.675781 122.371094 210.328125 117.289062 213.984375 C 108.417969 220.359375 102.703125 228.945312 99.269531 239.160156 C 97.675781 243.898438 96.941406 248.824219 96.4375 253.785156 C 96.140625 256.703125 96.019531 259.625 95.832031 262.546875 C 95.871094 262.65625 95.910156 262.761719 95.949219 262.871094 C 95.890625 262.984375 95.855469 263.132812 95.761719 263.199219 C 95.761719 263.199219 95.761719 263.199219 95.757812 263.199219 C 95.683594 263.253906 95.609375 263.144531 95.617188 263.039062 C 94.980469 262.082031 94.566406 261.019531 94.210938 259.9375 C 93.96875 259.195312 93.675781 258.496094 93.175781 257.890625 C 92.664062 256.289062 91.53125 255.585938 90.023438 255.863281 C 89.492188 259.167969 90.675781 262.0625 92.121094 264.90625 C 92.65625 265.964844 93.121094 267.058594 93.601562 268.140625 C 94.75 270.738281 94.730469 270.296875 97.027344 270.570312 C 97.542969 270.628906 98.058594 270.570312 98.570312 270.457031 C 98.757812 270.417969 98.925781 270.363281 99.027344 270.1875 C 99.617188 270.226562 99.871094 269.800781 100.097656 269.375 C 100.773438 268.109375 101.433594 266.839844 102.097656 265.566406 C 102.390625 265.390625 102.507812 265.097656 102.605469 264.792969 C 102.90625 264.628906 103.019531 264.328125 103.140625 264.039062 C 103.371094 263.957031 103.4375 263.722656 103.574219 263.550781 C 105.390625 261.242188 107.445312 259.171875 109.847656 257.460938 C 110.027344 257.332031 110.195312 257.1875 110.371094 257.050781 C 110.582031 256.890625 110.820312 256.707031 110.71875 256.425781 C 110.640625 256.210938 110.347656 256.085938 110.160156 256.125 C 109.316406 256.296875 108.507812 255.921875 107.675781 256.015625 C 107.308594 256.054688 106.988281 256.242188 106.664062 256.441406 C 104.167969 257.945312 102.007812 259.851562 100.035156 261.980469 C 99.859375 262.171875 99.707031 262.394531 99.5 262.542969 C 99.257812 262.710938 99.097656 262.53125 98.988281 262.3125 C 99.167969 262.074219 99.171875 261.835938 99.015625 261.589844 C 99.136719 261.34375 99.234375 261.09375 99.058594 260.828125 C 99.121094 260.785156 99.125 260.738281 99.074219 260.683594 C 99.195312 260.453125 99.269531 260.21875 99.121094 259.964844 C 99.167969 259.789062 99.242188 259.617188 99.257812 259.4375 C 99.449219 257.453125 99.609375 255.46875 99.824219 253.492188 C 100.019531 251.691406 100.269531 249.902344 100.496094 248.113281 C 100.613281 247.648438 100.75 247.1875 100.847656 246.71875 C 101.832031 242.175781 103.347656 237.824219 105.515625 233.707031 C 106.289062 232.238281 107.105469 230.792969 107.90625 229.339844 C 108.21875 229.15625 108.320312 228.839844 108.429688 228.523438 C 108.730469 228.355469 108.832031 228.058594 108.9375 227.761719 C 109.238281 227.621094 109.316406 227.328125 109.4375 227.058594 C 109.644531 226.988281 109.730469 226.820312 109.769531 226.621094 C 109.84375 226.589844 109.878906 226.535156 109.875 226.453125 C 110.101562 226.371094 110.171875 226.140625 110.308594 225.976562 C 110.992188 225.160156 111.523438 224.230469 112.308594 223.496094 C 112.28125 223.375 112.394531 223.09375 112.074219 223.332031 C 111.859375 223.492188 111.789062 223.46875 111.769531 223.378906 C 111.75 223.300781 111.773438 223.175781 111.78125 223.078125 C 114.019531 220.574219 116.53125 218.367188 119.191406 216.328125 C 119.453125 216.164062 119.71875 215.992188 119.984375 215.828125 C 121.5625 214.832031 123.144531 213.835938 124.71875 212.839844 C 124.796875 212.847656 124.863281 212.832031 124.914062 212.792969 C 124.949219 212.769531 124.980469 212.734375 125.003906 212.691406 C 125.132812 212.703125 125.222656 212.652344 125.285156 212.542969 C 125.410156 212.558594 125.503906 212.507812 125.5625 212.394531 C 125.6875 212.414062 125.78125 212.363281 125.839844 212.246094 C 125.96875 212.269531 126.0625 212.222656 126.121094 212.105469 C 126.25 212.128906 126.34375 212.082031 126.402344 211.964844 L 126.40625 211.964844 C 126.53125 211.988281 126.625 211.941406 126.683594 211.828125 L 126.6875 211.824219 C 126.78125 211.789062 126.875 211.742188 126.964844 211.695312 L 126.976562 211.6875 C 127.101562 211.714844 127.191406 211.671875 127.253906 211.558594 L 127.261719 211.554688 C 127.386719 211.578125 127.480469 211.539062 127.539062 211.421875 L 127.550781 211.417969 C 127.550781 211.417969 127.554688 211.417969 127.554688 211.417969 C 127.554688 211.417969 127.550781 211.417969 127.550781 211.417969 C 127.675781 211.445312 127.769531 211.402344 127.828125 211.289062 L 127.835938 211.285156 C 127.960938 211.3125 128.054688 211.269531 128.117188 211.15625 L 128.121094 211.152344 C 128.246094 211.179688 128.34375 211.136719 128.40625 211.023438 C 129.3125 210.679688 130.21875 210.339844 131.125 209.996094 C 131.539062 209.667969 132.054688 209.578125 132.539062 209.421875 C 132.582031 209.464844 132.609375 209.507812 132.628906 209.558594 C 132.660156 209.632812 132.667969 209.710938 132.644531 209.800781 C 133.023438 209.722656 133.40625 209.671875 133.726562 209.421875 C 133.816406 209.339844 133.914062 209.269531 134.039062 209.246094 C 133.933594 209.304688 133.828125 209.363281 133.726562 209.421875 C 133.851562 209.421875 133.96875 209.40625 134.023438 209.277344 C 134.207031 209.34375 134.367188 209.296875 134.515625 209.179688 C 134.632812 209.222656 134.730469 209.207031 134.804688 209.09375 C 134.933594 209.109375 135.046875 209.09375 135.128906 208.980469 C 135.191406 208.996094 135.25 208.992188 135.304688 208.949219 C 135.6875 208.9375 136.046875 208.847656 136.386719 208.671875 C 136.65625 208.648438 136.925781 208.632812 137.160156 208.472656 C 137.335938 208.519531 137.492188 208.441406 137.648438 208.378906 C 138.707031 208.292969 139.746094 208.007812 140.878906 208.125 C 140.742188 207.75 141.003906 207.40625 140.691406 207.148438 Z M 98.863281 260.609375 C 98.867188 260.605469 98.867188 260.605469 98.867188 260.601562 C 98.867188 260.601562 98.863281 260.605469 98.863281 260.605469 C 98.867188 260.601562 98.871094 260.601562 98.871094 260.601562 C 98.871094 260.601562 98.867188 260.601562 98.867188 260.601562 C 98.871094 260.605469 98.875 260.605469 98.878906 260.605469 C 98.871094 260.609375 98.871094 260.605469 98.863281 260.609375 Z M 127.519531 210.753906 C 127.496094 210.761719 127.472656 210.765625 127.449219 210.773438 C 127.453125 210.769531 127.457031 210.765625 127.464844 210.761719 C 127.484375 210.753906 127.503906 210.742188 127.523438 210.734375 C 127.523438 210.738281 127.523438 210.746094 127.519531 210.753906 Z M 124.730469 212.824219 C 124.726562 212.824219 124.726562 212.820312 124.726562 212.820312 C 124.722656 212.8125 124.71875 212.804688 124.714844 212.796875 L 124.707031 212.769531 L 124.726562 212.820312 C 124.730469 212.824219 124.730469 212.820312 124.734375 212.824219 C 124.730469 212.820312 124.730469 212.824219 124.730469 212.824219 Z M 127.539062 210.640625 C 127.535156 210.671875 127.53125 210.703125 127.523438 210.730469 C 127.503906 210.738281 127.484375 210.746094 127.46875 210.757812 C 127.503906 210.730469 127.53125 210.691406 127.539062 210.640625 Z M 127.335938 210.8125 C 127.3125 210.824219 127.289062 210.832031 127.269531 210.839844 C 127.265625 210.839844 127.261719 210.84375 127.261719 210.839844 C 127.285156 210.832031 127.3125 210.824219 127.335938 210.8125 Z M 138.734375 206.660156 C 138.738281 206.65625 138.742188 206.65625 138.742188 206.652344 C 138.742188 206.652344 138.746094 206.652344 138.746094 206.652344 C 138.75 206.652344 138.753906 206.652344 138.753906 206.652344 C 138.75 206.65625 138.742188 206.65625 138.734375 206.660156 Z M 138.265625 206.699219 C 138.257812 206.699219 138.253906 206.695312 138.25 206.699219 C 138.253906 206.699219 138.261719 206.699219 138.265625 206.699219 Z M 134.152344 209.089844 C 134.15625 209.066406 134.15625 209.042969 134.148438 209.015625 C 134.164062 209.023438 134.179688 209.027344 134.191406 209.03125 C 134.179688 209.050781 134.167969 209.070312 134.152344 209.089844 Z M 134.980469 208.960938 C 135.015625 208.945312 135.058594 208.945312 135.105469 208.953125 C 135.105469 208.953125 135.105469 208.953125 135.101562 208.957031 C 135.058594 208.949219 135.019531 208.949219 134.980469 208.960938 Z M 134.980469 208.960938"/></g></g></g><g clip-path="url(#v)"><g clip-path="url(#w)"><g clip-path="url(#x)"><path d="M 126.980469 211.683594 C 126.886719 211.726562 126.792969 211.769531 126.703125 211.8125 C 126.828125 211.839844 126.921875 211.792969 126.980469 211.683594 Z M 126.980469 211.683594"/></g></g></g></svg>